<?xml version="1.0" encoding="UTF-8"?>
<svg version="1.1" viewBox="0 0 714 715" xmlns="http://www.w3.org/2000/svg"><path d="m407.4 82.32-346.5 329.6c-24.65 23.44-14.68 64.78 17.95 74.4l458.7 135.3c32.63 9.632 63.44-19.64 55.46-52.74l-112.2-464.9c-7.975-33.07-48.76-45.1-73.41-21.66z" fill="#FFF1C9"/><path d="m403.9 493.2h-150.1c-22.78 44.99-34.19 94.88-33.21 145.3l213.1 0.192c-0.769-26.61-3.996-53.09-9.639-79.11-4.941-22.63-11.69-44.83-20.18-66.38z" fill="#F9B800"/><path d="m390.8 312.6h-120v127.9h120v-127.9z" fill="#262626"/><path d="m343.5 291.2h-29.08c-9.216 0-18.06-3.662-24.57-10.18-6.517-6.517-10.18-15.36-10.18-24.57v-36.74c0-8.993 3.573-17.62 9.931-23.98 6.359-6.358 14.98-9.931 23.98-9.931h29.8c11.88 0 23.28 4.72 31.68 13.12s13.12 19.8 13.12 31.68v15.92c0 11.85-4.707 23.21-13.08 31.59-8.379 8.378-19.74 13.08-31.59 13.08z" fill="#262626"/><path d="m379.7 279 17.8-58.85c0.249-0.822 0.675-1.58 1.25-2.218 0.574-0.639 1.283-1.143 2.074-1.476 0.792-0.334 1.647-0.488 2.506-0.453 0.858 0.035 1.698 0.259 2.46 0.656l19.22 9.996c0.834 0.433 1.551 1.062 2.09 1.832 0.539 0.771 0.884 1.66 1.006 2.592s0.017 1.88-0.305 2.763c-0.323 0.883-0.854 1.675-1.549 2.309l-46.55 42.85z" fill="#D3B970"/><path d="m375.1 276.7 50.82-31.64c0.789-0.49 1.679-0.797 2.603-0.896 0.924-0.1 1.858 9e-3 2.734 0.32s1.671 0.815 2.325 1.474c0.655 0.66 1.152 1.459 1.456 2.337l6.74 19.51c0.32 0.926 0.416 1.916 0.279 2.887-0.138 0.97-0.504 1.895-1.069 2.696s-1.312 1.457-2.181 1.913c-0.868 0.455-1.832 0.698-2.812 0.707l-60.89 0.686z" fill="#D3B970"/><path d="m390.8 280.9c-2.053 0-4.06-0.608-5.768-1.749-1.707-1.141-3.037-2.762-3.823-4.659s-0.992-3.985-0.591-5.999c0.401-2.013 1.389-3.863 2.841-5.315s3.302-2.441 5.316-2.841c2.014-0.401 4.101-0.195 5.998 0.591 1.897 0.785 3.518 2.116 4.659 3.823s1.75 3.715 1.75 5.768c-4e-3 2.752-1.099 5.39-3.045 7.337-1.946 1.946-4.585 3.041-7.337 3.044zm0-17.91c-1.488 0-2.943 0.442-4.181 1.269-1.237 0.826-2.202 2.002-2.772 3.377-0.569 1.375-0.718 2.888-0.428 4.348 0.291 1.46 1.007 2.801 2.06 3.853 1.052 1.053 2.393 1.769 3.853 2.06 1.46 0.29 2.973 0.141 4.348-0.428 1.375-0.57 2.55-1.535 3.377-2.772 0.827-1.238 1.269-2.693 1.269-4.181-4e-3 -1.995-0.798-3.907-2.209-5.317-1.41-1.411-3.322-2.205-5.317-2.209z" fill="#262626"/><path d="m372 254.7c0.412-3.898-0.727-7.801-3.171-10.86s-5.996-5.042-9.888-5.507l0.093-10.07c0.05-3.196-0.532-6.369-1.711-9.339s-2.933-5.678-5.161-7.969c-2.229-2.29-4.887-4.119-7.824-5.379-2.936-1.261-6.092-1.93-9.288-1.968l-37.13-0.264c-4.863-6e-3 -9.531 1.917-12.98 5.348-3.448 3.43-5.394 8.088-5.413 12.95l-0.393 45.35c-0.055 3.803 0.641 7.58 2.047 11.11 1.406 3.535 3.495 6.757 6.148 9.483 2.652 2.726 5.816 4.903 9.311 6.405 3.494 1.502 7.251 2.301 11.05 2.35h1.714l-0.229 25.13 49.06 0.35 0.271-29.77h-0.042l0.221-23.94c3.423-0.362 6.616-1.893 9.041-4.336 2.424-2.443 3.932-5.647 4.268-9.073z" fill="#fff"/><path d="m467.5 380.4-58.84 34.69 36.54 75.57s16.49 31.32 47.42 16.64c6.241-3.017 11.81-7.268 16.36-12.5s7.999-11.32 10.13-17.92l31.79-96.48s46.71-15.86 53.64-56.67c0.267-1.294 0.289-2.626 0.064-3.927-0.353-1.946-1.241-3.756-2.563-5.227 0.474-1.077 0.856-2.192 1.142-3.334 0.643-2.592 1.257-5.12-0.842-7.262-0.874-0.945-2.078-1.518-3.363-1.598s-2.551 0.339-3.535 1.17c0.486-2.656-0.242-4.998-1.878-6.026-0.672-0.396-1.449-0.578-2.227-0.521-3.692 0.221-6.376 5.283-7.14 6.697-3.128 5.712-9.732 15.37-19.51 28.92 0 0 14.07-19.08 6.583-24.34-2.235-1.564-4.905 0.628-6.376 2.185-2.72 2.856-3.77 6.804-5.79 10.09-2.665 4.12-6.226 7.583-10.42 10.13-6.604 4.198-13.92 6.426-19.94 11.54-2.743 2.307-5.189 4.945-7.282 7.854-2.449 3.442-3.313 7.505-5.427 10.98l-32.71 53.51-15.83-34.18z" fill="#fff"/><g fill="#262626"><path d="m476.7 512.7c-21.21 0-32.59-21.04-32.72-21.31l-37.13-76.8 61.32-36.15 15.36 33.21 31.3-51.24c0.869-1.51 1.619-3.085 2.242-4.712 0.837-2.229 1.925-4.356 3.242-6.341 2.158-3.014 4.684-5.748 7.518-8.139 3.77-3.213 8.04-5.327 12.14-7.369 2.721-1.286 5.371-2.716 7.94-4.284 4.023-2.423 7.442-5.732 9.996-9.674 0.705-1.196 1.341-2.431 1.906-3.699 1.078-2.292 2.192-4.655 4.063-6.626 4.034-4.284 6.89-3.306 8.232-2.363 0.729 0.514 1.343 1.174 1.805 1.937s0.762 1.613 0.88 2.497c0.204 1.566 0.117 3.156-0.257 4.691 4.012-5.862 6.768-10.19 8.432-13.22l0.043-0.093c0.957-1.75 3.863-7.083 8.268-7.34 1.071-0.09 2.142 0.16 3.063 0.714 0.788 0.541 1.439 1.258 1.901 2.095 0.463 0.836 0.724 1.769 0.762 2.724 1.132-0.284 2.318-0.263 3.438 0.062 1.121 0.325 2.135 0.942 2.938 1.788 2.678 2.72 1.864 5.983 1.214 8.603-0.229 0.933-0.522 1.85-0.878 2.742 1.051 1.358 1.795 2.926 2.184 4.599 0.388 1.672 0.41 3.408 0.065 5.09-2.856 17.02-13.26 32.42-29.99 44.51-7.378 5.345-15.42 9.71-23.92 12.99l-31.56 95.8c-2.201 6.777-5.748 13.04-10.43 18.41-4.68 5.372-10.4 9.744-16.81 12.85-5.153 2.567-10.82 3.948-16.57 4.041zm-66.14-96.98 35.97 74.38c3.004 5.183 7 9.722 11.76 13.36 10.13 7.561 21.49 8.44 33.76 2.606 6.062-2.942 11.47-7.078 15.89-12.16 4.424-5.082 7.776-11 9.856-17.41l32.03-97.15 0.678-0.229c0.457-0.157 45.99-16.08 52.69-55.56 0.239-1.131 0.26-2.296 0.065-3.435-0.309-1.685-1.077-3.251-2.221-4.526l-0.614-0.714 0.371-0.843c0.443-1.001 0.799-2.037 1.064-3.099 0.664-2.692 1-4.412-0.478-5.919-0.615-0.681-1.467-1.099-2.382-1.169-0.915-0.069-1.821 0.217-2.53 0.798l-3.128 2.856 0.764-4.156c0.371-2.034-0.121-3.869-1.228-4.548-0.42-0.246-0.907-0.354-1.392-0.307-1.871 0.107-3.87 2.085-5.926 5.862l-0.05 0.086c-2.964 5.412-8.918 14.28-19.28 28.64l-0.322 0.45-2.306-1.685 0.464-0.642c2.856-4.07 8.825-13.83 7.961-19.14-0.058-0.507-0.222-0.997-0.481-1.438-0.26-0.44-0.609-0.821-1.025-1.118-1.428-0.999-3.635 1.064-4.52 1.999-1.556 1.628-2.52 3.692-3.57 5.877-0.617 1.361-1.305 2.689-2.063 3.977-2.77 4.307-6.484 7.928-10.86 10.59-2.668 1.625-5.42 3.105-8.247 4.434-4.155 2.064-8.082 4.006-11.59 6.99-2.633 2.243-4.976 4.804-6.976 7.626-1.191 1.811-2.173 3.751-2.927 5.783-0.684 1.763-1.501 3.472-2.442 5.112l-34.1 55.79-16.29-35.19-56.38 33.22z"/><path d="m357 260.4c-0.197 0.01-0.395 0.01-0.593 0-1.153-0.118-2.245-0.574-3.139-1.312-0.893-0.738-1.548-1.724-1.882-2.834-0.333-1.11-0.33-2.294 0.01-3.402 0.339-1.109 0.999-2.091 1.897-2.824 0.897-0.734 1.992-1.184 3.146-1.295s2.314 0.122 3.335 0.671c1.021 0.548 1.857 1.387 2.401 2.41 0.545 1.023 0.774 2.185 0.658 3.338-0.146 1.444-0.823 2.783-1.899 3.757-1.076 0.975-2.475 1.516-3.927 1.519l-7e-3 -0.028zm0-8.868c-0.582 0-1.151 0.169-1.638 0.486-0.488 0.317-0.873 0.769-1.109 1.301s-0.312 1.12-0.22 1.695c0.092 0.574 0.349 1.109 0.739 1.541 0.39 0.431 0.897 0.74 1.46 0.889 0.562 0.148 1.155 0.131 1.708-0.051s1.041-0.52 1.405-0.973c0.364-0.454 0.589-1.004 0.647-1.582 0.077-0.793-0.162-1.585-0.667-2.202-0.504-0.617-1.232-1.009-2.025-1.09l-0.3-0.014z"/><path d="m310.1 295 29.27-0.714c0.19-7e-3 0.377 0.054 0.525 0.173 0.149 0.119 0.25 0.288 0.285 0.475 0.034 0.187 0 0.38-0.096 0.545-0.096 0.164-0.248 0.288-0.428 0.349l-29.68 10.71 0.121-11.54z"/><path d="m352.6 256.7c-0.355 2e-3 -0.698-0.129-0.962-0.366-0.264-0.238-0.43-0.565-0.466-0.919-0.161-1.584 0.098-3.184 0.751-4.636 0.653-1.453 1.677-2.708 2.969-3.639 1.241-0.847 2.666-1.384 4.156-1.566 1.491-0.183 3.004-6e-3 4.412 0.516 0.182 0.063 0.35 0.162 0.493 0.291s0.259 0.286 0.339 0.461c0.081 0.175 0.126 0.364 0.132 0.557 5e-3 0.192-0.028 0.384-0.098 0.564-0.071 0.179-0.177 0.342-0.312 0.48-0.135 0.137-0.297 0.246-0.475 0.319s-0.37 0.109-0.562 0.107c-0.193-3e-3 -0.383-0.045-0.56-0.123-0.964-0.345-1.995-0.461-3.012-0.337-1.016 0.124-1.99 0.484-2.842 1.051-0.884 0.637-1.585 1.496-2.031 2.49s-0.623 2.088-0.511 3.172c0.019 0.187 0 0.375-0.054 0.555s-0.143 0.347-0.261 0.492c-0.119 0.145-0.265 0.266-0.43 0.354-0.166 0.089-0.347 0.144-0.533 0.163l-0.143 0.014z"/></g><path d="m208.8 376.3 58.84 34.69-36.54 75.57s-16.5 31.32-47.42 16.64c-6.243-3.015-11.81-7.266-16.36-12.49s-7.998-11.32-10.13-17.92l-31.8-96.48s-46.71-15.86-53.63-56.67c-0.2676-1.294-0.2894-2.626-0.0642-3.927 0.3492-1.945 1.232-3.754 2.549-5.227-0.4745-1.077-0.8567-2.192-1.142-3.334-0.6426-2.585-1.257-5.119 0.8497-7.261 0.8729-0.944 2.076-1.515 3.359-1.595s2.548 0.338 3.531 1.166c-0.4855-2.656 0.2499-4.998 1.878-6.026 0.6738-0.393 1.45-0.574 2.228-0.521 3.691 0.221 6.376 5.283 7.14 6.697 3.134 5.712 9.739 15.38 19.51 28.92 0 0-14.07-19.08-6.584-24.34 2.235-1.564 4.906 0.635 6.384 2.185 2.72 2.856 3.762 6.811 5.783 10.09 2.668 4.116 6.228 7.579 10.42 10.13 6.605 4.199 13.92 6.426 19.95 11.55 2.742 2.308 5.188 4.946 7.283 7.854 2.442 3.441 3.313 7.497 5.427 10.97l32.7 53.51 15.84-34.17z" fill="#fff"/><g fill="#262626"><path d="m199.7 508.5c-5.76-0.088-11.43-1.469-16.58-4.042-6.411-3.109-12.13-7.481-16.81-12.85-4.68-5.372-8.226-11.64-10.42-18.41l-31.61-95.8c-8.502-3.274-16.54-7.64-23.92-12.99-16.72-12.08-27.09-27.5-29.99-44.56-0.3384-1.673-0.3121-3.4 0.0773-5.062s1.133-3.221 2.179-4.569c-0.3484-0.896-0.6417-1.811-0.8782-2.742-0.6498-2.628-1.428-5.884 1.214-8.611 0.8045-0.844 1.818-1.46 2.938-1.785 1.12-0.325 2.306-0.347 3.438-0.064 0.0397-0.955 0.3011-1.888 0.7633-2.724 0.4622-0.837 1.113-1.554 1.9-2.096 0.9212-0.552 1.992-0.802 3.063-0.714 4.405 0.264 7.311 5.591 8.268 7.34l0.05 0.093c1.692 3.092 4.405 7.368 8.432 13.24-0.377-1.538-0.464-3.134-0.257-4.705 0.116-0.885 0.414-1.736 0.876-2.499 0.462-0.764 1.078-1.423 1.809-1.935 1.342-0.942 4.198-1.885 8.233 2.364 1.863 1.97 2.984 4.341 4.062 6.626 0.562 1.269 1.199 2.504 1.907 3.698 2.542 3.941 5.948 7.252 9.96 9.682 2.571 1.564 5.221 2.994 7.94 4.284 4.126 2.042 8.396 4.163 12.14 7.368 2.834 2.393 5.362 5.127 7.525 8.14 1.315 1.984 2.4 4.111 3.235 6.34 0.629 1.628 1.381 3.205 2.249 4.72l31.31 51.24 15.36-33.21 61.33 36.16-37.13 76.75c-0.085 0.293-11.47 21.34-32.67 21.34zm-121.9-208.8c-1.045 0.02-2.04 0.451-2.77 1.199-1.485 1.507-1.15 3.235-0.4784 5.919 0.2597 1.062 0.6133 2.099 1.057 3.099l0.3713 0.842-0.6069 0.714c-1.15 1.272-1.919 2.84-2.221 4.527-0.1988 1.122-0.1794 2.271 0.0572 3.385 6.712 39.57 52.23 55.46 52.69 55.61l0.671 0.229 32.02 97.15c2.078 6.411 5.43 12.34 9.854 17.42s9.83 9.22 15.89 12.16c12.3 5.841 23.69 4.948 33.84-2.67 4.744-3.634 8.723-8.169 11.71-13.34l35.94-74.34-56.34-33.22-16.29 35.14-34.1-55.8c-0.946-1.637-1.763-3.347-2.442-5.112-0.757-2.031-1.739-3.97-2.927-5.783-2.028-2.802-4.396-5.342-7.048-7.562-3.505-2.984-7.425-4.926-11.58-6.99-2.812-1.33-5.55-2.81-8.204-4.434-4.378-2.66-8.094-6.281-10.87-10.59-0.759-1.286-1.446-2.614-2.056-3.977-1.028-2.185-1.999-4.241-3.57-5.876-0.885-0.936-3.099-2.999-4.527-2-0.415 0.298-0.763 0.679-1.023 1.119-0.259 0.441-0.424 0.93-0.483 1.438-0.864 5.305 5.055 14.99 7.947 19.11l0.478 0.664-2.306 1.685-0.322-0.449c-10.38-14.4-16.34-23.23-19.28-28.63l-0.0499-0.093c-2.064-3.777-4.056-5.747-5.933-5.862-0.4846-0.042-0.9707 0.065-1.392 0.307-1.107 0.714-1.599 2.514-1.221 4.556l0.7568 4.148-3.12-2.856c-0.5795-0.541-1.342-0.842-2.135-0.842z"/><path d="m285.7 250.6c1.597 0 2.891-1.295 2.891-2.892s-1.294-2.891-2.891-2.891-2.892 1.294-2.892 2.891 1.295 2.892 2.892 2.892z"/><path d="m316.7 250.1c1.597 0 2.892-1.295 2.892-2.892s-1.295-2.892-2.892-2.892-2.892 1.295-2.892 2.892 1.295 2.892 2.892 2.892z"/><path d="m297.1 260.5c-0.163-1e-3 -0.325-0.03-0.478-0.085-2.142-0.714-4.284-1.771-4.284-3.642 0.024-0.35 0.117-0.691 0.274-1.005 0.157-0.313 0.374-0.593 0.639-0.823 0.185-0.187 0.359-0.385 0.522-0.592 0.724-0.938 1.158-2.067 1.249-3.249l1.2-12.53c0.036-0.378 0.221-0.727 0.514-0.97 0.293-0.242 0.671-0.358 1.049-0.322 0.379 0.036 0.728 0.221 0.97 0.514 0.243 0.293 0.359 0.671 0.323 1.05l-1.214 12.54c-0.143 1.713-0.778 3.35-1.828 4.712-0.221 0.286-0.414 0.5-0.578 0.678 0.674 0.4 1.393 0.718 2.142 0.95 0.319 0.11 0.589 0.331 0.761 0.622 0.173 0.29 0.236 0.633 0.18 0.966-0.057 0.333-0.23 0.636-0.488 0.854-0.259 0.217-0.586 0.336-0.924 0.335h-0.029z"/><path d="m301.4 273c-2.188-0.061-4.322-0.699-6.184-1.849-0.165-0.099-0.309-0.23-0.422-0.385s-0.194-0.332-0.238-0.519c-0.043-0.187-0.049-0.381-0.015-0.571 0.033-0.189 0.104-0.37 0.209-0.531s0.241-0.3 0.401-0.407 0.339-0.181 0.528-0.217 0.383-0.033 0.571 7e-3c0.188 0.041 0.366 0.12 0.523 0.231 0.05 0.035 2.991 1.885 5.883 1.249 0.791-0.2 1.533-0.56 2.18-1.057s1.186-1.122 1.583-1.834c0.203-0.321 0.524-0.547 0.894-0.63 0.369-0.083 0.757-0.016 1.077 0.187 0.32 0.202 0.546 0.524 0.629 0.893 0.083 0.37 0.016 0.757-0.187 1.077-0.732 1.328-1.809 2.433-3.117 3.2s-2.799 1.166-4.315 1.156z"/></g><path d="m253.8 493.2-12.5-60.69c-2.126-10.32-1.586-21.01 1.571-31.07l27.92-88.9h24.9l5.712 12.68c12.26 27.22 51.12 26.64 62.55-0.935l4.87-11.75h21.96l27.51 90.39c3.55 11.65 3.726 24.07 0.507 35.81l-14.91 54.46h-150.1z" fill="#F9B800"/><g fill="#262626"><path d="m333.8 224.1h-13.79c-4.265 0-8.355-1.694-11.37-4.71-3.016-3.015-4.71-7.105-4.71-11.37v-10.34h29.87v26.42z"/><path d="m390.8 312.6 29.32 97.94 55.15-32.54c-6.093-11.17-12.86-21.97-20.27-32.32-13.07-18.25-19.85-27.47-31.33-32.13-12.2-4.998-24.46-3.263-32.87-0.957z"/><path d="m372.1 239.7h-24.78c-2.389-1e-3 -4.755-0.472-6.962-1.387-2.207-0.916-4.212-2.256-5.9-3.946-1.689-1.69-3.028-3.697-3.942-5.904-0.913-2.208-1.383-4.574-1.382-6.963v-8.225h42.97l-8e-3 26.42z"/><path d="m363.4 197.7h-42.7v26.42h42.7v-26.42z"/><path d="m383.9 339.2c18.76 0 33.97-15.21 33.97-33.97 0-18.76-15.21-33.97-33.97-33.97-18.76 0-33.97 15.21-33.97 33.97 0 18.76 15.21 33.97 33.97 33.97z"/><path d="m359 362.9c13.89 0 25.15-11.26 25.15-25.15s-11.26-25.15-25.15-25.15c-13.89 0-25.16 11.26-25.16 25.15s11.26 25.15 25.16 25.15z"/><path d="m404.2 364.3c13.89 0 25.15-11.26 25.15-25.15 0-13.89-11.26-25.16-25.15-25.16s-25.15 11.26-25.15 25.16c0 13.89 11.26 25.15 25.15 25.15z"/></g><path d="m352.9 449.6h-44.19c-6.59-8e-3 -12.91-2.63-17.57-7.291-4.66-4.661-7.28-10.98-7.286-17.57v-29.89c0-3.2 1.27-6.27 3.531-8.535 2.261-2.264 5.328-3.54 8.529-3.545h69.78c3.199 3e-3 6.266 1.276 8.528 3.538s3.535 5.329 3.538 8.528v29.89c-3e-3 6.594-2.623 12.92-7.285 17.58-4.661 4.664-10.98 7.287-17.58 7.295zm-56.98-63.97c-2.441 3e-3 -4.781 0.975-6.507 2.702-1.725 1.727-2.695 4.067-2.697 6.508v29.89c6e-3 5.833 2.325 11.43 6.449 15.55 4.124 4.125 9.716 6.446 15.55 6.454h44.19c5.834-6e-3 11.43-2.326 15.55-6.452 4.125-4.125 6.446-9.719 6.451-15.55v-29.87c0-2.444-0.97-4.788-2.697-6.518-1.726-1.729-4.069-2.703-6.513-2.706h-69.78z" fill="#fff"/><g fill="#262626"><path d="m379 397.1c13.89 0 25.15-11.26 25.15-25.15 0-13.89-11.26-25.15-25.15-25.15s-25.15 11.26-25.15 25.15c0 13.89 11.26 25.15 25.15 25.15z"/><path d="m467.3 439.8c-0.259-1e-3 -0.512-0.073-0.734-0.207-0.221-0.133-0.402-0.325-0.523-0.554s-0.178-0.486-0.164-0.744c0.014-0.259 0.098-0.509 0.243-0.723l16.03-23.68c0.105-0.155 0.24-0.289 0.397-0.392 0.156-0.104 0.332-0.176 0.516-0.211 0.184-0.036 0.374-0.035 0.558 2e-3 0.184 0.038 0.359 0.111 0.514 0.216 0.156 0.105 0.289 0.24 0.393 0.396 0.104 0.157 0.175 0.332 0.211 0.517 0.036 0.184 0.035 0.373-2e-3 0.557-0.038 0.184-0.111 0.359-0.216 0.515l-16.04 23.68c-0.131 0.194-0.307 0.353-0.514 0.462-0.206 0.11-0.437 0.167-0.671 0.167z"/><path d="m586.5 344.9c-0.289 0-0.57-0.086-0.809-0.249-0.238-0.163-0.421-0.394-0.526-0.663-0.104-0.269-0.125-0.563-0.058-0.844 0.066-0.281 0.216-0.535 0.429-0.729 8.789-8.011 14.84-27.5 14.89-27.7 0.055-0.18 0.145-0.347 0.264-0.492s0.266-0.264 0.432-0.353c0.166-0.088 0.347-0.143 0.534-0.161s0.376 1e-3 0.555 0.056c0.18 0.055 0.347 0.145 0.492 0.264 0.144 0.12 0.264 0.266 0.353 0.432 0.088 0.166 0.142 0.347 0.161 0.534 0.018 0.187-1e-3 0.376-0.056 0.555-0.257 0.828-6.333 20.43-15.71 28.97-0.262 0.238-0.603 0.371-0.957 0.372z"/><path d="m577.6 337.2c-0.296 1e-3 -0.586-0.09-0.828-0.26-0.242-0.171-0.425-0.412-0.524-0.691-0.099-0.28-0.109-0.583-0.028-0.868 0.082-0.285 0.249-0.537 0.48-0.723 8.133-6.597 17.27-31.32 17.36-31.56 0.145-0.333 0.412-0.598 0.747-0.741 0.334-0.143 0.71-0.153 1.051-0.028 0.342 0.125 0.623 0.375 0.786 0.7 0.163 0.324 0.197 0.699 0.093 1.048-0.385 1.049-9.503 25.7-18.24 32.8-0.255 0.207-0.572 0.32-0.9 0.321z"/><path d="m209 435.6c-0.232 0-0.46-0.056-0.665-0.164-0.206-0.109-0.382-0.265-0.513-0.457l-16.04-23.69c-0.114-0.155-0.196-0.331-0.24-0.519-0.045-0.187-0.051-0.381-0.018-0.571 0.032-0.189 0.103-0.37 0.207-0.532 0.105-0.162 0.24-0.301 0.4-0.409 0.159-0.107 0.339-0.182 0.528-0.219 0.188-0.036 0.383-0.035 0.571 6e-3 0.188 0.04 0.366 0.118 0.523 0.229 0.158 0.11 0.291 0.252 0.392 0.415l16.04 23.68c0.145 0.215 0.229 0.465 0.243 0.724 0.013 0.259-0.044 0.517-0.166 0.746s-0.303 0.421-0.526 0.554c-0.222 0.134-0.477 0.204-0.737 0.203z"/><path d="m89.8 340.8c-0.354-1e-3 -0.6949-0.133-0.9568-0.372-9.368-8.568-15.45-28.14-15.71-28.97-0.0657-0.182-0.0937-0.375-0.0824-0.568s0.0618-0.382 0.1483-0.555 0.2072-0.327 0.3549-0.452 0.3192-0.218 0.5042-0.275c0.1849-0.057 0.3795-0.075 0.5718-0.054s0.3784 0.08 0.547 0.175c0.1685 0.095 0.316 0.223 0.4336 0.377 0.1175 0.154 0.2026 0.329 0.2501 0.517 0.0642 0.193 6.112 19.68 14.89 27.7 0.2109 0.195 0.3583 0.448 0.423 0.728 0.0647 0.279 0.0436 0.572-0.0604 0.84-0.1041 0.267-0.2863 0.497-0.5229 0.659-0.2366 0.163-0.5166 0.25-0.8036 0.251h0.0072z"/><path d="m98.67 333c-0.3279-1e-3 -0.6455-0.114-0.8996-0.321-8.746-7.09-17.85-31.75-18.25-32.79-0.0647-0.176-0.094-0.364-0.0863-0.551 0.0076-0.188 0.0522-0.372 0.1311-0.543 0.0789-0.17 0.1906-0.323 0.3287-0.45 0.1381-0.128 0.2999-0.226 0.4762-0.291s0.3635-0.094 0.5512-0.087c0.1876 8e-3 0.3718 0.053 0.5422 0.132s0.3236 0.19 0.4508 0.328c0.1273 0.138 0.2261 0.3 0.2908 0.476 0.0928 0.25 9.225 24.99 17.36 31.57 0.2283 0.187 0.3934 0.439 0.4727 0.722 0.079 0.284 0.069 0.585-0.029 0.863-0.0989 0.277-0.2808 0.518-0.5212 0.688s-0.5276 0.262-0.8221 0.262z"/></g><g fill="#fff"><path d="m327.2 588.1c-0.379 0-0.742-0.042-1.01-0.117-0.268-0.074-0.418-0.175-0.418-0.28v-19.21c0-0.105 0.15-0.206 0.418-0.28 0.268-0.075 0.631-0.116 1.01-0.116 0.378 0 0.742 0.041 1.009 0.116 0.268 0.074 0.419 0.175 0.419 0.28v19.21c0 0.105-0.151 0.206-0.419 0.28-0.267 0.075-0.631 0.117-1.009 0.117z"/><path d="m327.2 527.7c-0.378 0-0.741-0.15-1.009-0.418s-0.419-0.631-0.419-1.01v-33.08c0-0.379 0.151-0.742 0.419-1.01s0.631-0.418 1.009-0.418c0.379 0 0.742 0.15 1.01 0.418s0.418 0.631 0.418 1.01v33.08c0 0.379-0.15 0.742-0.418 1.01s-0.631 0.418-1.01 0.418z"/><path d="m416.1 530c-0.083 7e-3 -0.167 7e-3 -0.25 0-17.64-3.099-26.85-12.85-31.45-20.54-3.02-4.916-5.003-10.4-5.827-16.11-0.018-0.188 0-0.377 0.054-0.557 0.055-0.181 0.144-0.349 0.264-0.495 0.119-0.146 0.266-0.266 0.432-0.356 0.166-0.089 0.348-0.144 0.536-0.163 0.187-0.019 0.376 0 0.557 0.054 0.18 0.055 0.348 0.144 0.494 0.263 0.146 0.12 0.267 0.267 0.356 0.433s0.145 0.348 0.163 0.535c0.825 5.312 2.693 10.41 5.498 14.99 6.269 10.34 16.17 16.76 29.44 19.1 0.379 0.032 0.73 0.213 0.975 0.504 0.245 0.29 0.364 0.666 0.332 1.045s-0.214 0.729-0.504 0.974c-0.291 0.245-0.667 0.365-1.045 0.333l-0.022-0.014z"/><path d="m244.3 531.9c-2.132-7e-3 -4.262-0.148-6.376-0.421-0.379-0.049-0.723-0.246-0.956-0.547-0.234-0.302-0.338-0.685-0.29-1.064 0.048-0.378 0.245-0.722 0.547-0.956s0.684-0.338 1.063-0.289c10.62 1.363 19.18-0.764 25.43-6.305 11.54-10.25 11.54-28.95 11.54-29.14 0-0.379 0.15-0.742 0.418-1.01s0.631-0.418 1.01-0.418 0.742 0.15 1.01 0.418c0.267 0.268 0.418 0.631 0.418 1.01 0 0.813 0 20.16-12.49 31.28-5.569 4.948-12.72 7.44-21.32 7.44z"/></g><g fill="#262626"><path d="m200.3 375.2 43.08 24.82 27.45-87.42s-38.06-10.61-70.54 62.6z"/><path d="m218 287.6h-110.7c-5.544-6e-3 -10.86-2.211-14.78-6.132s-6.126-9.237-6.132-14.78v-88.54c-0.0038-2.751 0.5347-5.476 1.585-8.019s2.591-4.853 4.534-6.8 4.252-3.492 6.793-4.546c2.541-1.054 5.265-1.598 8.016-1.599h110.7c5.544 6e-3 10.86 2.211 14.78 6.132s6.126 9.237 6.132 14.78v88.54c4e-3 2.751-0.535 5.475-1.585 8.018s-2.591 4.854-4.534 6.8c-1.944 1.947-4.252 3.492-6.793 4.546-2.541 1.055-5.265 1.598-8.016 1.599zm-110.7-127.6c-4.788 6e-3 -9.377 1.91-12.76 5.296-3.385 3.385-5.289 7.974-5.295 12.76v88.54c0.0057 4.787 1.91 9.376 5.295 12.76 3.385 3.385 7.974 5.289 12.76 5.295h110.7c4.788-4e-3 9.378-1.908 12.76-5.293 3.385-3.386 5.289-7.977 5.293-12.76v-88.54c-4e-3 -4.791-1.91-9.384-5.298-12.77-3.389-3.386-7.983-5.288-12.77-5.288h-110.7z"/><path d="m226.3 207.7h-37.47c-0.379 0-0.742-0.151-1.01-0.419-0.267-0.267-0.418-0.631-0.418-1.009 0-0.379 0.151-0.742 0.418-1.01 0.268-0.268 0.631-0.418 1.01-0.418h37.47c0.379 0 0.742 0.15 1.01 0.418 0.267 0.268 0.418 0.631 0.418 1.01 0 0.378-0.151 0.742-0.418 1.009-0.268 0.268-0.631 0.419-1.01 0.419z"/><path d="m226.3 222.5h-37.47c-0.379 0-0.742-0.15-1.01-0.418-0.267-0.268-0.418-0.631-0.418-1.01s0.151-0.742 0.418-1.01c0.268-0.267 0.631-0.418 1.01-0.418h37.47c0.379 0 0.742 0.151 1.01 0.418 0.267 0.268 0.418 0.631 0.418 1.01s-0.151 0.742-0.418 1.01c-0.268 0.268-0.631 0.418-1.01 0.418z"/><path d="m216.6 237.2h-27.7c-0.379 0-0.742-0.15-1.01-0.418-0.267-0.268-0.418-0.631-0.418-1.01 0-0.378 0.151-0.742 0.418-1.01 0.268-0.267 0.631-0.418 1.01-0.418h27.7c0.379 0 0.742 0.151 1.01 0.418 0.268 0.268 0.418 0.632 0.418 1.01 0 0.379-0.15 0.742-0.418 1.01s-0.631 0.418-1.01 0.418z"/><path d="m167.4 251.2h-48.92l-4.462-15.71h56.41l-3.028 15.71zm-46.79-2.856h44.43l1.906-9.996h-49.18l2.842 9.996z"/><path d="m143.5 251.2c-0.379 0-0.742-0.15-1.01-0.418-0.267-0.268-0.418-0.631-0.418-1.01v-12.85c0-0.379 0.151-0.742 0.418-1.01 0.268-0.268 0.631-0.418 1.01-0.418s0.742 0.15 1.01 0.418 0.418 0.631 0.418 1.01v12.85c0 0.379-0.15 0.742-0.418 1.01s-0.631 0.418-1.01 0.418z"/><path d="m164.8 253.7c2.145 0 3.884-1.755 3.884-3.92s-1.739-3.92-3.884-3.92-3.884 1.755-3.884 3.92 1.739 3.92 3.884 3.92z"/><path d="m143.4 253.7c2.164 0 3.919-1.755 3.919-3.92s-1.755-3.92-3.919-3.92c-2.165 0-3.92 1.755-3.92 3.92s1.755 3.92 3.92 3.92z"/><path d="m121.1 253.7c2.141 0 3.877-1.755 3.877-3.92s-1.736-3.92-3.877-3.92c-2.142 0-3.877 1.755-3.877 3.92s1.735 3.92 3.877 3.92z"/><path d="m108.4 210c-0.221 1e-3 -0.439-0.049-0.637-0.147-0.199-0.098-0.371-0.241-0.505-0.417l-7.997-10.57c-0.3696-0.493-0.5948-1.079-0.6505-1.692-0.0556-0.614 0.0605-1.231 0.3354-1.782 0.2748-0.551 0.6976-1.015 1.221-1.34 0.524-0.324 1.127-0.497 1.743-0.498h24.43c0.943 0 1.872 0.224 2.711 0.654 0.839 0.429 1.564 1.052 2.116 1.816l11.04 11.53c0.229 0.278 0.345 0.633 0.324 0.992-0.021 0.36-0.177 0.699-0.437 0.948-0.261 0.249-0.605 0.391-0.966 0.397-0.36 6e-3 -0.709-0.125-0.977-0.366l-11.29-11.77c-0.284-0.414-0.664-0.752-1.108-0.986s-0.939-0.356-1.441-0.356h-24.43c-0.086-2e-3 -0.171 0.022-0.244 0.067-0.074 0.046-0.133 0.112-0.17 0.19-0.038 0.076-0.054 0.161-0.046 0.245 7e-3 0.085 0.038 0.165 0.089 0.233l8.026 10.57c0.114 0.15 0.198 0.32 0.246 0.502s0.06 0.371 0.035 0.558c-0.025 0.186-0.087 0.366-0.182 0.528-0.095 0.163-0.221 0.305-0.371 0.419-0.249 0.187-0.552 0.287-0.864 0.285z"/></g><path d="m143.5 238.7h26.66l6.654-29.86c0.103-0.474 0.098-0.964-0.014-1.436-0.113-0.471-0.33-0.911-0.636-1.287s-0.693-0.678-1.131-0.884c-0.439-0.206-0.918-0.311-1.403-0.306h-30.13v33.77z" fill="#FFE18B"/><path d="m114.6 238.7h28.87v-33.77h-35.66c-0.53-2e-3 -1.053 0.123-1.525 0.364s-0.88 0.591-1.19 1.021-0.513 0.927-0.592 1.451-0.032 1.06 0.137 1.562l9.953 29.37z" fill="#FFE18B"/><g fill="#262626"><path d="m143.5 234.7c-0.379 0-0.742-0.15-1.01-0.418-0.267-0.268-0.418-0.631-0.418-1.01v-24.73c0-0.378 0.151-0.741 0.418-1.009 0.268-0.268 0.631-0.419 1.01-0.419s0.742 0.151 1.01 0.419 0.418 0.631 0.418 1.009v24.7c4e-3 0.19-0.03 0.379-0.1 0.555-0.07 0.177-0.175 0.337-0.308 0.473s-0.291 0.244-0.467 0.317c-0.175 0.074-0.363 0.111-0.553 0.111z"/><path d="m132.2 525.2h-45.85c-2.294-2e-3 -4.494-0.915-6.117-2.537-1.622-1.623-2.535-3.823-2.537-6.117v-45.85c0.0037-2.293 0.9169-4.491 2.539-6.112 1.622-1.621 3.821-2.533 6.114-2.535h45.84c2.294 2e-3 4.494 0.915 6.117 2.537 1.622 1.623 2.535 3.823 2.537 6.117v45.85c-4e-3 2.291-0.915 4.487-2.535 6.107-1.619 1.621-3.814 2.534-6.105 2.54zm-45.85-60.29c-1.537 2e-3 -3.011 0.614-4.098 1.701-1.087 1.086-1.698 2.56-1.7 4.097v45.85c0.0018 1.537 0.6133 3.011 1.7 4.098 1.087 1.086 2.56 1.698 4.098 1.7h45.84c1.537-2e-3 3.01-0.614 4.097-1.7 1.087-1.087 1.699-2.561 1.701-4.098v-45.85c-2e-3 -1.537-0.614-3.011-1.701-4.098-1.087-1.086-2.56-1.698-4.097-1.7l-45.84 7e-3z"/><path d="m98.97 488.6c-1.424 2e-3 -2.816-0.419-4.001-1.209-1.185-0.791-2.108-1.915-2.654-3.23-0.5456-1.316-0.6887-2.763-0.4113-4.16 0.2775-1.397 0.9631-2.68 1.97-3.687 1.007-1.007 2.29-1.692 3.687-1.97 1.397-0.277 2.845-0.134 4.16 0.411 1.315 0.546 2.439 1.47 3.23 2.654 0.79 1.185 1.211 2.577 1.21 4.002-2e-3 1.906-0.76 3.734-2.108 5.081-1.348 1.348-3.176 2.107-5.082 2.108zm0-11.53c-0.8589-1e-3 -1.699 0.252-2.414 0.728-0.7148 0.477-1.272 1.154-1.602 1.947-0.3297 0.793-0.4167 1.666-0.25 2.509s0.5796 1.617 1.186 2.225c0.6069 0.607 1.38 1.022 2.223 1.19s1.716 0.082 2.509-0.246c0.794-0.329 1.472-0.885 1.95-1.599 0.477-0.714 0.732-1.554 0.732-2.412 0-1.151-0.457-2.254-1.269-3.068-0.813-0.814-1.915-1.272-3.065-1.274z"/><path d="m119.7 510.7c-1.422 0-2.812-0.421-3.995-1.211-1.182-0.79-2.104-1.913-2.648-3.227s-0.687-2.759-0.409-4.154c0.277-1.395 0.962-2.676 1.968-3.682 1.005-1.005 2.286-1.69 3.681-1.967 1.395-0.278 2.84-0.135 4.154 0.409s2.437 1.466 3.227 2.648 1.212 2.572 1.212 3.995c-2e-3 1.906-0.76 3.734-2.108 5.082-1.348 1.347-3.176 2.106-5.082 2.107zm0-11.52c-0.857 0-1.695 0.254-2.408 0.73s-1.268 1.153-1.596 1.945-0.414 1.663-0.247 2.504 0.58 1.613 1.186 2.219 1.378 1.019 2.219 1.186 1.712 0.082 2.504-0.246 1.469-0.884 1.945-1.597c0.476-0.712 0.731-1.55 0.731-2.407 2e-3 -0.571-0.109-1.136-0.326-1.663-0.217-0.528-0.536-1.007-0.939-1.411-0.402-0.404-0.881-0.725-1.407-0.943-0.527-0.219-1.092-0.332-1.662-0.332v0.015z"/><path d="m95.68 514.9c-0.2521-5e-3 -0.4985-0.076-0.714-0.207-0.3233-0.196-0.5559-0.511-0.6469-0.878s-0.033-0.755 0.1614-1.079l23.98-39.8c0.196-0.325 0.513-0.558 0.881-0.65 0.368-0.091 0.757-0.032 1.082 0.164s0.558 0.513 0.649 0.882c0.092 0.368 0.033 0.757-0.163 1.082l-23.98 39.8c-0.1291 0.215-0.3126 0.392-0.5319 0.514-0.2194 0.122-0.4669 0.183-0.7176 0.179z"/><path d="m641.1 538.3h-62.12c-4.228-4e-3 -8.281-1.685-11.27-4.674s-4.67-7.043-4.674-11.27v-122.9c8e-3 -4.22 1.686-8.265 4.669-11.25 2.983-2.985 7.026-4.667 11.25-4.679h62.12c4.228 4e-3 8.281 1.685 11.27 4.674 2.989 2.99 4.67 7.043 4.674 11.27v122.9c-6e-3 4.222-1.683 8.27-4.666 11.26s-7.027 4.672-11.25 4.686zm-62.15-151.9c-3.47 4e-3 -6.796 1.384-9.25 3.838-2.454 2.453-3.834 5.78-3.837 9.25v122.9c3e-3 3.47 1.383 6.797 3.837 9.25 2.454 2.454 5.78 3.834 9.25 3.838h62.12c3.47-4e-3 6.797-1.384 9.25-3.838 2.454-2.453 3.834-5.78 3.838-9.25v-122.9c-8e-3 -3.463-1.385-6.781-3.832-9.231s-5.765-3.831-9.227-3.843h-62.15z"/></g><path d="m629 475.1h-37.94c-3.652 0-6.612 2.96-6.612 6.611v22.91c0 3.651 2.96 6.611 6.612 6.611h37.94c3.651 0 6.611-2.96 6.611-6.611v-22.91c0-3.651-2.96-6.611-6.611-6.611z" fill="#FFE18B"/><path d="m634.3 489.5h-48.39c-0.378 0-0.742-0.151-1.01-0.418-0.267-0.268-0.418-0.631-0.418-1.01s0.151-0.742 0.418-1.01c0.268-0.268 0.632-0.418 1.01-0.418h48.39c0.379 0 0.742 0.15 1.01 0.418s0.418 0.631 0.418 1.01-0.15 0.742-0.418 1.01c-0.268 0.267-0.631 0.418-1.01 0.418z" fill="#262626"/><path d="m600.8 506.8h-6.205c-1.316-0.049-2.562-0.607-3.476-1.556-0.914-0.948-1.424-2.214-1.424-3.531s0.51-2.583 1.424-3.532 2.16-1.506 3.476-1.556h6.205c1.316 0.05 2.562 0.607 3.476 1.556 0.913 0.949 1.424 2.215 1.424 3.532s-0.511 2.583-1.424 3.531c-0.914 0.949-2.16 1.507-3.476 1.556zm-6.205-7.319c-0.57 0.033-1.106 0.282-1.498 0.697s-0.61 0.964-0.61 1.535 0.218 1.12 0.61 1.535 0.928 0.664 1.498 0.696h6.205c0.57-0.032 1.106-0.281 1.498-0.696s0.61-0.964 0.61-1.535-0.218-1.12-0.61-1.535-0.928-0.664-1.498-0.697h-6.205z" fill="#262626"/><path d="m631.2 411.1h-42.33c-3.652 0-6.612 2.96-6.612 6.611v22.91c0 3.651 2.96 6.611 6.612 6.611h42.33c3.651 0 6.611-2.96 6.611-6.611v-22.91c0-3.651-2.96-6.611-6.611-6.611z" fill="#F9B800"/><g fill="#262626"><path d="m610 438.2c-1.811 0-3.58-0.536-5.086-1.542-1.505-1.006-2.678-2.436-3.371-4.108-0.693-1.673-0.874-3.513-0.521-5.289 0.353-1.775 1.225-3.406 2.505-4.687 1.28-1.28 2.911-2.152 4.687-2.505s3.616-0.172 5.289 0.521c1.672 0.693 3.102 1.866 4.108 3.371 1.005 1.506 1.542 3.276 1.542 5.086-2e-3 2.427-0.967 4.754-2.683 6.47s-4.043 2.681-6.47 2.683zm0-15.45c-1.246 0-2.463 0.37-3.499 1.062s-1.843 1.675-2.319 2.826c-0.477 1.151-0.602 2.417-0.359 3.638 0.243 1.222 0.843 2.344 1.724 3.225 0.88 0.881 2.003 1.48 3.224 1.723 1.222 0.243 2.488 0.119 3.639-0.358 1.15-0.477 2.134-1.284 2.826-2.319 0.692-1.036 1.061-2.254 1.061-3.499-2e-3 -1.67-0.666-3.27-1.846-4.451-1.181-1.181-2.782-1.845-4.451-1.847z"/><path d="m587.5 438.2h-5.234v-2.856h5.234c1.395-0.157 2.684-0.822 3.621-1.869 0.936-1.047 1.453-2.403 1.453-3.807 0-1.405-0.517-2.76-1.453-3.807-0.937-1.047-2.226-1.713-3.621-1.869h-5.234v-2.856h5.234c2.128 0.194 4.106 1.178 5.547 2.756 1.441 1.579 2.239 3.639 2.239 5.776s-0.798 4.197-2.239 5.776c-1.441 1.578-3.419 2.561-5.547 2.756z"/><path d="m637.9 438.3h-5.255c-2.136-0.186-4.125-1.165-5.574-2.745-1.449-1.581-2.253-3.647-2.253-5.791s0.804-4.21 2.253-5.79c1.449-1.581 3.438-2.56 5.574-2.746h5.234v2.856h-5.234c-1.402 0.15-2.7 0.812-3.642 1.861-0.943 1.049-1.465 2.409-1.465 3.819s0.522 2.771 1.465 3.819c0.942 1.049 2.24 1.712 3.642 1.861h5.234l0.021 2.856z"/><path d="m647.4 292.7h-175c-5.47-0.016-10.71-2.195-14.58-6.063-3.869-3.867-6.051-9.109-6.068-14.58v-107.2c0.016-5.472 2.196-10.72 6.065-14.58s9.113-6.05 14.58-6.065h175c5.471 0.015 10.72 2.196 14.58 6.065s6.049 9.112 6.064 14.58v107.2c-0.016 5.47-2.198 10.71-6.067 14.58-3.869 3.868-9.111 6.047-14.58 6.063zm-175-145.7c-4.714 0.015-9.231 1.894-12.56 5.228-3.334 3.333-5.213 7.85-5.229 12.56v107.2c6e-3 4.716 1.883 9.238 5.219 12.57 3.335 3.335 7.858 5.21 12.57 5.213h175c4.716-3e-3 9.239-1.878 12.57-5.213 3.336-3.334 5.213-7.856 5.218-12.57v-107.2c-0.015-4.714-1.894-9.231-5.228-12.56-3.333-3.333-7.85-5.213-12.56-5.228l-175 8e-3z"/></g><path d="m542.9 172.9h-54.94c-5.659 0-10.25 4.587-10.25 10.25v64.5c0 5.659 4.587 10.25 10.25 10.25h54.94c5.659 0 10.25-4.587 10.25-10.25v-64.5c0-5.659-4.587-10.25-10.25-10.25z" fill="#FFE18B"/><path d="m516.8 218.4h-2.856v39.47h2.856v-39.47z" fill="#262626"/><g fill="#F9B800"><path d="m586.2 174.7h-13.29c-1.992 0-3.606 1.614-3.606 3.606v13.29c0 1.992 1.614 3.606 3.606 3.606h13.29c1.992 0 3.606-1.614 3.606-3.606v-13.29c0-1.992-1.614-3.606-3.606-3.606z"/><path d="m615 174.7h-13.29c-1.992 0-3.606 1.614-3.606 3.606v13.29c0 1.992 1.614 3.606 3.606 3.606h13.29c1.992 0 3.606-1.614 3.606-3.606v-13.29c0-1.992-1.614-3.606-3.606-3.606z"/><path d="m643.7 174.7h-13.29c-1.992 0-3.606 1.614-3.606 3.606v13.29c0 1.992 1.614 3.606 3.606 3.606h13.29c1.992 0 3.606-1.614 3.606-3.606v-13.29c0-1.992-1.614-3.606-3.606-3.606z"/></g><g fill="#262626"><path d="m647.3 215.3h-76.62c-0.379 0-0.742-0.15-1.01-0.418s-0.418-0.631-0.418-1.01c0-0.378 0.15-0.742 0.418-1.009 0.268-0.268 0.631-0.419 1.01-0.419h76.62c0.379 0 0.742 0.151 1.01 0.419 0.268 0.267 0.418 0.631 0.418 1.009 0 0.379-0.15 0.742-0.418 1.01s-0.631 0.418-1.01 0.418z"/><path d="m647.3 230.4h-76.62c-0.379 0-0.742-0.151-1.01-0.419s-0.418-0.631-0.418-1.009c0-0.379 0.15-0.742 0.418-1.01s0.631-0.418 1.01-0.418h76.62c0.379 0 0.742 0.15 1.01 0.418s0.418 0.631 0.418 1.01c0 0.378-0.15 0.741-0.418 1.009s-0.631 0.419-1.01 0.419z"/><path d="m620.7 245.5h-49.98c-0.379 0-0.742-0.15-1.01-0.418-0.267-0.268-0.418-0.631-0.418-1.01 0-0.378 0.151-0.742 0.418-1.009 0.268-0.268 0.631-0.419 1.01-0.419h49.98c0.379 0 0.742 0.151 1.01 0.419 0.268 0.267 0.418 0.631 0.418 1.009 0 0.379-0.15 0.742-0.418 1.01s-0.631 0.418-1.01 0.418z"/></g><path d="m529.6 218.4h-28.62c-0.299 0-0.596-0.059-0.873-0.174s-0.528-0.284-0.74-0.496c-0.211-0.212-0.379-0.464-0.493-0.741s-0.172-0.574-0.171-0.874v-14.47c0-0.343 0.136-0.671 0.378-0.914 0.243-0.242 0.571-0.378 0.914-0.378h30.58c0.17-1e-3 0.339 0.032 0.496 0.096 0.158 0.065 0.301 0.16 0.422 0.28s0.217 0.263 0.282 0.42c0.066 0.157 0.099 0.326 0.099 0.496v14.47c1e-3 0.3-0.057 0.597-0.171 0.874s-0.282 0.529-0.493 0.741c-0.212 0.212-0.463 0.381-0.74 0.496s-0.574 0.174-0.873 0.174z" fill="#FFBB45"/><path d="m515.3 205.5c9.16 0 16.59-2.32 16.59-5.183s-7.426-5.184-16.59-5.184-16.59 2.321-16.59 5.184 7.426 5.183 16.59 5.183z" fill="#262626"/><path d="m401.7 494.6h-145.7c-0.379 0-0.742-0.151-1.01-0.418-0.267-0.268-0.418-0.631-0.418-1.01s0.151-0.742 0.418-1.01c0.268-0.268 0.631-0.418 1.01-0.418h145.7c0.379 0 0.742 0.15 1.01 0.418s0.418 0.631 0.418 1.01-0.15 0.742-0.418 1.01c-0.268 0.267-0.631 0.418-1.01 0.418z" fill="#fff"/></svg>
