<?xml version="1.0" encoding="UTF-8"?>
<svg version="1.1" viewBox="0 0 350 280" xmlns="http://www.w3.org/2000/svg"><path d="m236.9 14.97-175 76.67c-15.27 6.692-17.57 27.41-4.14 37.28l153.9 113.2c13.43 9.88 32.52 1.515 34.36-15.05l21.09-189.9c1.841-16.58-14.95-28.93-30.22-22.24z" fill="#fff1c9"/><path d="m294.1 250.6h-255.7c-0.1856 0-0.3637-0.074-0.495-0.205-0.1312-0.131-0.205-0.309-0.205-0.495s0.0738-0.364 0.205-0.495c0.1313-0.131 0.3094-0.205 0.495-0.205h255.7c0.186 0 0.364 0.074 0.495 0.205s0.205 0.309 0.205 0.495-0.074 0.364-0.205 0.495-0.309 0.205-0.495 0.205z" fill="#262626"/><path d="m198.2 111.4 8.729-28.85c0.122-0.402 0.331-0.773 0.612-1.086 0.282-0.312 0.629-0.559 1.016-0.722 0.388-0.163 0.807-0.239 1.227-0.221 0.421 0.017 0.832 0.127 1.205 0.321l9.422 4.9c0.407 0.212 0.758 0.519 1.021 0.896 0.264 0.376 0.433 0.81 0.494 1.265 0.06 0.455 0.01 0.918-0.147 1.35-0.156 0.432-0.414 0.82-0.752 1.13z" fill="#d3b970"/><path d="m195.9 110.3 24.91-15.5c0.387-0.24 0.823-0.391 1.276-0.44 0.452-0.049 0.91 4e-3 1.34 0.156 0.429 0.152 0.818 0.399 1.139 0.722s0.566 0.714 0.715 1.144l3.304 9.566c0.157 0.454 0.203 0.939 0.136 1.414-0.067 0.476-0.246 0.929-0.522 1.322-0.277 0.393-0.643 0.715-1.068 0.939s-0.897 0.344-1.378 0.35z" fill="#d3b970"/><path d="m160.7 163.7c11.6 0 21-9.401 21-21s-9.401-21-21-21-21 9.4-21 21 9.4 21 21 21z" fill="#262626"/><path d="m115.5 51.42h-82.45c-5.238 0-9.485 4.246-9.485 9.485v36.5c0 5.238 4.247 9.485 9.485 9.485h82.45c5.239 0 9.485-4.247 9.485-9.485v-36.5c0-5.238-4.246-9.485-9.485-9.485z" fill="#fff"/><path d="m115.5 107.6h-82.45c-2.701-3e-3 -5.291-1.077-7.201-2.987s-2.984-4.5-2.987-7.202v-36.5c0.0028-2.701 1.077-5.291 2.987-7.201s4.5-2.984 7.201-2.987h82.45c2.701 0.0037 5.29 1.078 7.199 2.988 1.91 1.91 2.984 4.499 2.986 7.2v36.5c-2e-3 2.701-1.076 5.291-2.986 7.201-1.909 1.91-4.498 2.984-7.199 2.988zm-82.45-55.48c-2.33 0.0018-4.565 0.9284-6.212 2.576-1.648 1.648-2.574 3.882-2.576 6.212v36.5c0.0018 2.331 0.9284 4.565 2.576 6.213 1.648 1.648 3.882 2.574 6.212 2.576h82.45c2.33-3e-3 4.563-0.93 6.211-2.577 1.647-1.648 2.573-3.882 2.574-6.212v-36.5c-1e-3 -2.33-0.927-4.564-2.574-6.211-1.648-1.648-3.881-2.575-6.211-2.577z" fill="#262626"/><path d="m42.11 70.14c-0.1827 0-0.3581-0.071-0.4889-0.199-0.1308-0.127-0.2066-0.301-0.2111-0.484-0.0665-2.848 0.987-4.55 1.886-5.477 0.9922-1.049 2.358-1.665 3.801-1.715h0.0385c1.394 0.0294 2.72 0.608 3.689 1.61 0.917 0.9205 2.006 2.636 1.97 5.572 0 0.186-0.0738 0.364-0.205 0.495-0.1313 0.131-0.3094 0.205-0.495 0.205-0.1857 0-0.3637-0.074-0.495-0.205s-0.205-0.309-0.205-0.495c0.028-2.45-0.833-3.85-1.561-4.568-0.7118-0.7338-1.68-1.163-2.702-1.197h-0.0245c-1.066 0.0475-2.07 0.5098-2.8 1.288-1.018 1.05-1.536 2.597-1.491 4.47 0.0023 0.092-0.0135 0.183-0.0466 0.269-0.033 0.086-0.0826 0.164-0.146 0.231s-0.1393 0.12-0.2233 0.158c-0.0841 0.037-0.1747 0.057-0.2666 0.059z" fill="#262626"/><path d="m57.16 97.12h-20.01c-0.4901-1e-3 -0.9745-0.106-1.421-0.308-0.4463-0.203-0.8442-0.498-1.167-0.867s-0.563-0.803-0.7046-1.272c-0.1417-0.469-0.1814-0.963-0.1166-1.449l2.8-20.8c0.1103-0.826 0.5168-1.583 1.144-2.132 0.627-0.548 1.432-0.851 2.265-0.85h13.95c0.8197 0 1.612 0.293 2.236 0.825 0.623 0.533 1.036 1.27 1.163 2.08l3.252 20.81c0.0774 0.489 0.0477 0.99-0.087 1.467-0.1346 0.478-0.371 0.92-0.693 1.297-0.3219 0.377-0.7218 0.68-1.172 0.888s-0.9401 0.316-1.436 0.317z" fill="#ffe18b"/><path d="m111.5 66.26h-37.92c-1.506 0-2.726 1.221-2.726 2.726v2.118c0 1.505 1.221 2.726 2.726 2.726h37.92c1.506 0 2.727-1.221 2.727-2.726v-2.118c0-1.506-1.221-2.726-2.727-2.726z" fill="#ffbb45"/><g fill="#262626"><path d="m112.5 83.42h-39.75c-0.1856 0-0.3637-0.074-0.4949-0.205-0.1313-0.131-0.2051-0.309-0.2051-0.495s0.0738-0.364 0.2051-0.495c0.1312-0.131 0.3093-0.205 0.4949-0.205h39.75c0.185 0 0.363 0.074 0.495 0.205 0.131 0.131 0.205 0.309 0.205 0.495s-0.074 0.364-0.205 0.495c-0.132 0.131-0.31 0.205-0.495 0.205z"/><path d="m106.9 92.41h-34.16c-0.1856 0-0.3637-0.074-0.4949-0.205-0.1313-0.131-0.2051-0.309-0.2051-0.495s0.0738-0.364 0.2051-0.495c0.1312-0.131 0.3093-0.205 0.4949-0.205h34.16c0.186 0 0.364 0.074 0.495 0.205s0.205 0.309 0.205 0.495-0.074 0.364-0.205 0.495-0.309 0.205-0.495 0.205z"/><path d="m223.5 181.8c12.12 0 21.95-9.766 21.95-21.81 0-12.05-9.828-21.81-21.95-21.81-12.12 0-21.95 9.765-21.95 21.81 0 12.05 9.829 21.81 21.95 21.81z"/><path d="m201.6 152.4c12.12 0 21.95-9.766 21.95-21.81 0-12.05-9.828-21.81-21.95-21.81s-21.95 9.765-21.95 21.81c0 12.05 9.828 21.81 21.95 21.81z"/><path d="m182.3 127.1h-13.34c-3.284 0-6.536-0.647-9.57-1.904-3.035-1.257-5.792-3.099-8.114-5.422-2.322-2.322-4.164-5.079-5.421-8.114-1.256-3.034-1.903-6.287-1.902-9.571v-17.07c5e-3 -3.923 1.567-7.684 4.343-10.46s6.539-4.329 10.46-4.328h18.01c6.105 0 11.96 2.425 16.28 6.741 4.317 4.317 6.741 10.17 6.741 16.28v16.39c-1e-3 2.294-0.455 4.565-1.335 6.684s-2.168 4.044-3.792 5.665-3.551 2.906-5.672 3.782c-2.12 0.876-4.392 1.325-6.687 1.323z"/></g><path d="m149.4 76.04s-7.917 1.169-9.996 17.91c-0.245 2.045-1.128 3.962-2.523 5.478l-1.274 1.379c-0.321 0.347-0.504 0.799-0.514 1.272-9e-3 0.473 0.155 0.933 0.461 1.293l1.726 2.03-0.872 10.71s-1.75 11.41 11.69 11.06h8.547v11.84h26.86v-20.35s6.122-1.05 7.235-7.077c0.281-1.507 0.217-3.057-0.186-4.536-0.404-1.478-1.137-2.846-2.145-4-2.006-2.272-5.541-4.2-11.36-1.484 3e-3 0-23.12 4.641-27.65-25.53z" fill="#fff"/><g fill="#262626"><path d="m181.7 114.2c-0.554 0-1.096-0.165-1.556-0.472-0.46-0.308-0.819-0.745-1.031-1.257s-0.268-1.075-0.16-1.618 0.375-1.042 0.767-1.433c0.391-0.392 0.89-0.659 1.433-0.767s1.106-0.052 1.618 0.16 0.949 0.57 1.257 1.031c0.307 0.46 0.472 1.002 0.472 1.556 0 0.742-0.295 1.454-0.821 1.979-0.525 0.526-1.237 0.821-1.979 0.821zm0-4.221c-0.277 0-0.548 0.082-0.778 0.235-0.23 0.154-0.41 0.373-0.516 0.629s-0.134 0.537-0.08 0.809c0.055 0.271 0.188 0.521 0.384 0.716 0.195 0.196 0.445 0.33 0.716 0.384 0.272 0.054 0.554 0.026 0.809-0.08 0.256-0.106 0.475-0.285 0.629-0.516 0.153-0.23 0.236-0.501 0.236-0.777 0-0.372-0.148-0.728-0.41-0.99-0.263-0.263-0.619-0.41-0.99-0.41z"/><path d="m179.6 112.1c-0.182 0-0.357-0.071-0.488-0.197-0.13-0.127-0.207-0.3-0.212-0.482-0.049-1.445 0.381-2.614 1.284-3.475 1.792-1.708 4.785-1.491 4.9-1.481 0.186 0.014 0.358 0.102 0.48 0.243 0.121 0.142 0.181 0.326 0.166 0.511-0.014 0.186-0.102 0.358-0.243 0.479-0.142 0.122-0.325 0.181-0.511 0.167-0.025 0-2.506-0.175-3.85 1.106-0.606 0.581-0.882 1.369-0.847 2.412 3e-3 0.092-0.012 0.184-0.044 0.27-0.033 0.087-0.082 0.166-0.145 0.233s-0.139 0.122-0.223 0.16c-0.084 0.037-0.175 0.058-0.267 0.061z"/><path d="m152.3 101.6c0.915 0 1.656-0.742 1.656-1.656s-0.741-1.655-1.656-1.655c-0.914 0-1.655 0.741-1.655 1.655s0.741 1.656 1.655 1.656z"/><path d="m146.5 115.5c-0.674 3e-3 -1.342-0.131-1.963-0.392-2.013-0.851-3.364-3.094-3.36-5.579 0-0.208 0.047-0.414 0.136-0.603 0.088-0.188 0.217-0.355 0.377-0.488 0.161-0.134 0.348-0.231 0.549-0.284 0.202-0.053 0.412-0.062 0.618-0.025l8.347 1.491c0.214 0.039 0.415 0.127 0.59 0.255 0.175 0.129 0.318 0.296 0.419 0.488s0.157 0.404 0.165 0.621c7e-3 0.217-0.036 0.433-0.124 0.631-1.071 2.38-3.44 3.885-5.754 3.885zm-3.895-6.01c-4e-3 0.011-4e-3 0.022 0 0.032 0 1.932 1.004 3.654 2.506 4.291 2.303 0.973 4.956-0.7 5.897-2.8l-0.021-0.042-8.351-1.491z"/><path d="m156.5 127.2h12.84c0.113 1e-3 0.223 0.041 0.311 0.113s0.149 0.172 0.172 0.284c0.022 0.111 7e-3 0.227-0.046 0.328-0.052 0.101-0.137 0.181-0.241 0.227l-13.03 5.565z"/></g><path d="m156.5 138.7c-2e-3 -0.639 0.2-1.261 0.578-1.775 0.379-0.515 0.912-0.894 1.522-1.081 0.467-0.142 0.946-0.238 1.432-0.287 1.833-0.17 3.67 0.285 5.211 1.291 1.288-0.997 2.869-1.54 4.498-1.544 1.628-4e-3 3.212 0.532 4.504 1.523 1.304-0.875 2.827-1.367 4.396-1.421 0.985-0.027 1.966 0.122 2.898 0.441 0.581 0.203 1.084 0.581 1.439 1.083 0.356 0.502 0.547 1.102 0.546 1.717v6.125h-27.02z" fill="#ffe18b"/><path d="m260.7 227.1-154.4-0.13 6.846-62.67c0.649-5.94 3.465-11.43 7.908-15.43 4.444-3.994 10.2-6.21 16.18-6.225l63.84-0.161c7.449-0.018 14.73 2.19 20.92 6.34s10.99 10.05 13.8 16.95c12.95 29.78 22.32 51.52 23.34 54.1 0.487 1.265 0.876 2.565 1.166 3.889 0.227 1.099 0.373 2.214 0.437 3.335z" fill="#ffe18b"/><g fill="#262626"><path d="m213.9 227h-79.16v-53.65h59.74c0.817 0 1.611 0.261 2.268 0.746 0.657 0.484 1.142 1.166 1.383 1.946z"/><path d="m194.5 174.1c-0.167 2e-3 -0.329-0.055-0.457-0.161-0.128-0.107-0.214-0.256-0.243-0.42-0.196-1.158-4.7-28.39 4.697-31.66 0.176-0.061 0.368-0.05 0.536 0.03 0.167 0.081 0.295 0.225 0.357 0.401 0.061 0.175 0.05 0.368-0.031 0.535-0.08 0.167-0.224 0.296-0.4 0.357-6.884 2.394-5.061 22.54-3.776 30.1 0.015 0.091 0.013 0.184-8e-3 0.274-0.02 0.089-0.058 0.174-0.112 0.249-0.053 0.076-0.12 0.139-0.198 0.188-0.079 0.049-0.165 0.082-0.256 0.098-0.036 6e-3 -0.072 9e-3 -0.109 0.01z"/><path d="m136.5 174.1c-0.158 0-0.311-0.053-0.435-0.151-0.124-0.097-0.211-0.234-0.248-0.388-1.827-7.619-1.877-15.56-0.143-23.2 0.628-2.72 1.485-5.383 2.562-7.959 0.075-0.166 0.211-0.297 0.381-0.364 0.169-0.067 0.358-0.065 0.527 5e-3 0.168 0.071 0.302 0.204 0.374 0.371 0.071 0.168 0.075 0.357 9e-3 0.527-1.045 2.504-1.877 5.091-2.488 7.735-1.686 7.433-1.637 15.15 0.143 22.56 0.021 0.089 0.024 0.182 9e-3 0.273s-0.048 0.177-0.097 0.255-0.112 0.146-0.187 0.199c-0.075 0.054-0.16 0.092-0.25 0.113-0.051 0.012-0.104 0.018-0.157 0.017z"/></g><path d="m126.5 130.3c-0.728-0.941-1.563-1.794-2.489-2.541l-0.038-0.035c-1.732-1.536-3.235-3.311-4.467-5.271-1.092-1.75-1.75-3.542-2.82-6.3-0.536-1.372-0.914-2.45-1.124-3.052-2.495-7.168-4.133-13.59-6.667-14.52-0.382-0.129-0.778-0.211-1.18-0.242-0.535-0.05-1.074 8e-3 -1.586 0.17-0.512 0.161-0.987 0.424-1.396 0.772-0.271 0.231-0.507 0.502-0.7 0.801-0.98 1.558-0.494 3.815 0.511 8.264 0.161 0.7 0.305 1.277 0.399 1.662l2.034 9.324s-4.998 1.131-4.718 5.093c0 0-4.62-2.737-6.412 2.639 0 0-5.845 0.472-4.148 6.884 0 0 2.356 8.582 5.845 8.866 0 0-0.658 13.39 10.47 19.25l18.2-2.289 1.198-5.187c3.15-13.65 1.729-18.08 1.2-19.72-0.511-1.606-1.22-3.143-2.11-4.574z" fill="#fff"/><path d="m110.4 154.5c-0.11 1e-3 -0.219-0.025-0.318-0.075-0.098-0.05-0.184-0.122-0.249-0.212-2.101-2.852-3.406-6.213-3.78-9.737-0.794-8.05 3.805-14 5.688-16.05l-1.46-3.766c-0.143-0.382-0.329-0.868-0.535-1.351-1.159-2.692-1.68-4.953-1.547-6.724 0.037-0.534 0.183-1.056 0.428-1.533s0.584-0.9 0.996-1.242c0.404-0.337 0.873-0.588 1.377-0.739 0.504-0.15 1.034-0.197 1.556-0.136 3.171 0.35 5.068 3.976 5.149 4.126 0.042 0.082 0.068 0.172 0.076 0.263 7e-3 0.092-3e-3 0.185-0.031 0.272-0.028 0.088-0.073 0.169-0.132 0.24-0.06 0.07-0.132 0.128-0.214 0.17-0.082 0.043-0.171 0.069-0.263 0.076-0.092 8e-3 -0.184-2e-3 -0.272-0.03s-0.169-0.073-0.24-0.133c-0.07-0.059-0.128-0.132-0.17-0.214 0-0.031-1.635-3.111-4.057-3.377-0.336-0.039-0.676-0.01-1 0.086-0.325 0.096-0.626 0.258-0.886 0.474-0.268 0.222-0.487 0.497-0.645 0.807-0.159 0.31-0.252 0.648-0.276 0.995-0.115 1.544 0.368 3.584 1.435 6.066 0.221 0.507 0.413 1.018 0.56 1.4l1.778 4.585-0.311 0.322c-1.516 1.571-6.395 7.315-5.6 15.27 0.345 3.273 1.552 6.395 3.5 9.047 0.109 0.15 0.154 0.337 0.126 0.52s-0.128 0.347-0.277 0.457c-0.117 0.089-0.259 0.139-0.406 0.143z" fill="#262626"/><path d="m150 223.6c-4.74-0.312-9.497 0.252-14.03 1.666-16.87 5.316-24.36 20.9-25.95 24.43l39.98 0.207z" fill="#fff"/><g fill="#262626"><path d="m150.7 250.6-41.76-0.217 0.441-0.98c2.611-5.782 10.4-19.77 26.38-24.81 4.616-1.44 9.458-2.015 14.28-1.698l0.658 0.042zm-39.58-1.603 38.18 0.196v-24.93c-4.438-0.217-8.881 0.353-13.12 1.683-14.6 4.589-22.15 16.98-25.06 23.06z"/><path d="m104.1 144.8c-0.683 7e-3 -1.359-0.142-1.977-0.434-0.77-0.377-1.422-0.957-1.887-1.676-0.239 0.292-0.5388 0.531-0.878 0.7-0.6433 0.304-1.38 0.348-2.054 0.122-0.0864-0.031-0.1658-0.08-0.2336-0.142-0.0677-0.062-0.1226-0.137-0.1615-0.22-0.0388-0.084-0.0608-0.174-0.0648-0.266s0.0102-0.183 0.0417-0.27c0.0314-0.086 0.0796-0.166 0.1418-0.233 0.0621-0.068 0.137-0.123 0.2204-0.162s0.1736-0.061 0.2654-0.065c0.0919-4e-3 0.1837 0.011 0.2701 0.042 0.3194 0.096 0.6628 0.072 0.966-0.066 0.2115-0.137 0.3938-0.313 0.5363-0.521 0.1424-0.207 0.2421-0.441 0.2932-0.687l0.6995-2.278 0.655 2.289s0.466 1.529 1.817 2.166c0.959 0.455 2.177 0.375 3.619-0.234 0.085-0.041 0.177-0.063 0.271-0.067 0.094-3e-3 0.188 0.012 0.276 0.046s0.169 0.085 0.236 0.15c0.068 0.066 0.122 0.144 0.159 0.231 0.037 0.086 0.056 0.18 0.055 0.274 0 0.094-0.019 0.187-0.056 0.274s-0.091 0.165-0.159 0.23-0.148 0.116-0.236 0.15c-0.886 0.401-1.843 0.621-2.815 0.647z"/><path d="m100.3 141.8c-0.148-1e-3 -0.2928-0.048-0.4123-0.137-0.1195-0.088-0.208-0.211-0.2525-0.353l-4.417-14.02c-0.0557-0.177-0.0387-0.37 0.0473-0.534 0.086-0.165 0.2339-0.289 0.4112-0.345 0.1773-0.055 0.3694-0.038 0.5342 0.048 0.1647 0.086 0.2886 0.234 0.3443 0.411l4.4 14.02c0.027 0.088 0.037 0.18 0.029 0.272-8e-3 0.091-0.034 0.181-0.076 0.262-0.043 0.082-0.101 0.154-0.172 0.213-0.07 0.059-0.152 0.104-0.24 0.131-0.063 0.02-0.129 0.031-0.196 0.032z"/><path d="m107.2 138.9c-0.144-1e-3 -0.284-0.046-0.402-0.129s-0.207-0.201-0.256-0.337l-4.917-13.76c-0.031-0.087-0.045-0.179-0.04-0.271 4e-3 -0.092 0.027-0.182 0.066-0.265 0.04-0.083 0.095-0.158 0.163-0.22s0.148-0.109 0.234-0.14c0.087-0.032 0.179-0.045 0.271-0.041 0.092 5e-3 0.182 0.027 0.265 0.067 0.083 0.039 0.158 0.094 0.22 0.163 0.062 0.068 0.109 0.147 0.14 0.234l4.9 13.76c0.038 0.106 0.05 0.219 0.034 0.33-0.015 0.111-0.057 0.217-0.122 0.309s-0.151 0.166-0.25 0.218c-0.1 0.051-0.211 0.078-0.323 0.078z"/></g><path d="m290.5 61.49h-45.8c-6.641 0-12.03 5.384-12.03 12.02s5.385 12.02 12.03 12.02h45.8c6.642 0 12.03-5.383 12.03-12.02s-5.384-12.02-12.03-12.02z" fill="#fff"/><path d="m290.5 86.24h-45.82c-3.376 0-6.612-1.341-8.999-3.728-2.387-2.386-3.727-5.623-3.727-8.998 0-3.376 1.34-6.612 3.727-8.999 2.387-2.386 5.623-3.727 8.999-3.727h45.82c3.375 0 6.612 1.341 8.999 3.727 2.386 2.387 3.727 5.623 3.727 8.999 0 3.375-1.341 6.612-3.727 8.998-2.387 2.387-5.624 3.728-8.999 3.728zm-45.82-24.05c-3.004 0-5.885 1.193-8.009 3.317-2.124 2.124-3.317 5.005-3.317 8.009 0 3.003 1.193 5.884 3.317 8.008s5.005 3.318 8.009 3.318h45.82c3.004 0 5.885-1.194 8.009-3.318s3.317-5.005 3.317-8.008c0-3.004-1.193-5.885-3.317-8.009-2.124-2.124-5.005-3.317-8.009-3.317z" fill="#262626"/><g fill="#f9b800"><path d="m248.6 77.43c2.163 0 3.916-1.753 3.916-3.916s-1.753-3.917-3.916-3.917-3.917 1.754-3.917 3.917 1.754 3.916 3.917 3.916z"/><path d="m267.6 77.43c2.163 0 3.916-1.753 3.916-3.916s-1.753-3.917-3.916-3.917-3.917 1.754-3.917 3.917 1.754 3.916 3.917 3.916z"/><path d="m286.6 77.43c2.163 0 3.917-1.753 3.917-3.916s-1.754-3.917-3.917-3.917-3.916 1.754-3.916 3.917 1.753 3.916 3.916 3.916z"/></g><path d="m61.69 127.4h-22.24c-4.554 0-8.246 3.692-8.246 8.246v22.24c0 4.554 3.692 8.246 8.246 8.246h22.24c4.554 0 8.246-3.692 8.246-8.246v-22.24c0-4.554-3.692-8.246-8.246-8.246z" fill="#fff"/><path d="m61.68 166.8h-22.24c-2.372-3e-3 -4.646-0.947-6.323-2.625s-2.62-3.952-2.623-6.324v-22.25c0.0027-2.372 0.946-4.646 2.623-6.324s3.951-2.622 6.323-2.626h22.24c2.373 3e-3 4.647 0.947 6.325 2.625 1.678 1.678 2.622 3.952 2.624 6.325v22.24c0 2.375-0.9426 4.652-2.621 6.332-1.678 1.68-3.954 2.626-6.329 2.628zm-22.24-38.73c-2 2e-3 -3.917 0.796-5.331 2.21-1.415 1.413-2.211 3.329-2.215 5.329v22.24c0.0018 2.002 0.7973 3.92 2.212 5.335 1.415 1.416 3.333 2.212 5.334 2.215h22.24c2.001-3e-3 3.92-0.799 5.335-2.214 1.415-1.416 2.212-3.334 2.214-5.336v-22.24c-0.0019-2.002-0.7979-3.921-2.213-5.336-1.415-1.416-3.334-2.212-5.336-2.214z" fill="#262626"/><path d="m61.37 140.4c-0.428-0.785-1.067-1.436-1.844-1.879-3.574-1.999-7.182-0.76-8.95 1.837-1.792-2.628-5.47-3.871-9.1-1.75-0.6586 0.384-1.209 0.928-1.6 1.582-1.642 2.758-1.32 5.527 0.0595 7.497 0.0249 0.036 0.0518 0.07 0.0805 0.102v0.017c0.028 0.039 1.785 2.076 2.884 3.189 2.098 2.044 4.298 3.981 6.59 5.803 0.2966 0.242 0.6674 0.374 1.05 0.374s0.7534-0.132 1.05-0.374c1.978-1.579 3.584-2.947 4.778-3.994 0.9117-0.758 1.772-1.577 2.576-2.45 1.715-1.893 5.492-4.375 2.426-9.954z" fill="#d3b970"/><path d="m314.6 112.9h-68.27c-6.499 0-11.77 5.268-11.77 11.77v74.74c0 6.499 5.268 11.77 11.77 11.77h68.27c6.499 0 11.77-5.268 11.77-11.77v-74.74c0-6.499-5.268-11.77-11.77-11.77z" fill="#fff"/><path d="m314.6 211.8h-68.27c-3.305-4e-3 -6.474-1.319-8.811-3.656-2.338-2.337-3.652-5.506-3.656-8.811v-74.74c4e-3 -3.305 1.318-6.474 3.656-8.811 2.337-2.338 5.506-3.652 8.811-3.656h68.27c3.306 4e-3 6.475 1.318 8.812 3.656 2.337 2.337 3.652 5.506 3.655 8.811v74.74c-3e-3 3.305-1.318 6.474-3.655 8.811s-5.506 3.652-8.812 3.656zm-68.27-98.27c-2.934 4e-3 -5.747 1.171-7.821 3.246-2.075 2.074-3.242 4.887-3.246 7.821v74.74c4e-3 2.934 1.171 5.746 3.246 7.821 2.074 2.075 4.887 3.242 7.821 3.246h68.27c2.934-4e-3 5.747-1.171 7.822-3.246s3.242-4.887 3.245-7.821v-74.74c-2e-3 -2.934-1.169-5.748-3.244-7.822-2.075-2.075-4.888-3.242-7.823-3.245z" fill="#262626"/><path d="m257.5 149.8h-9.131c-2.65 0-4.799 2.149-4.799 4.799v9.131c0 2.651 2.149 4.799 4.799 4.799h9.131c2.65 0 4.799-2.148 4.799-4.799v-9.131c0-2.65-2.149-4.799-4.799-4.799z" fill="#fff1c9"/><path d="m257.5 178.3h-9.131c-2.65 0-4.799 2.148-4.799 4.798v9.132c0 2.65 2.149 4.798 4.799 4.798h9.131c2.65 0 4.799-2.148 4.799-4.798v-9.132c0-2.65-2.149-4.798-4.799-4.798z" fill="#fff1c9"/><g fill="#262626"><path d="m316.1 154.6h-42.27c-0.185 0-0.363-0.073-0.495-0.205-0.131-0.131-0.205-0.309-0.205-0.495 0-0.185 0.074-0.363 0.205-0.494 0.132-0.132 0.31-0.206 0.495-0.206h42.27c0.186 0 0.364 0.074 0.495 0.206 0.132 0.131 0.205 0.309 0.205 0.494 0 0.186-0.073 0.364-0.205 0.495-0.131 0.132-0.309 0.205-0.495 0.205z"/><path d="m299.9 164.9h-26.06c-0.185 0-0.363-0.074-0.495-0.205-0.131-0.131-0.205-0.309-0.205-0.495s0.074-0.364 0.205-0.495c0.132-0.131 0.31-0.205 0.495-0.205h26.06c0.186 0 0.364 0.074 0.495 0.205s0.205 0.309 0.205 0.495-0.074 0.364-0.205 0.495-0.309 0.205-0.495 0.205z"/><path d="m316.1 183.2h-42.27c-0.185 0-0.363-0.073-0.495-0.205-0.131-0.131-0.205-0.309-0.205-0.495 0-0.185 0.074-0.363 0.205-0.495 0.132-0.131 0.31-0.205 0.495-0.205h42.27c0.186 0 0.364 0.074 0.495 0.205 0.132 0.132 0.205 0.31 0.205 0.495 0 0.186-0.073 0.364-0.205 0.495-0.131 0.132-0.309 0.205-0.495 0.205z"/><path d="m299.9 193.5h-26.06c-0.185 0-0.363-0.074-0.495-0.205-0.131-0.131-0.205-0.309-0.205-0.495s0.074-0.364 0.205-0.495c0.132-0.131 0.31-0.205 0.495-0.205h26.06c0.186 0 0.364 0.074 0.495 0.205s0.205 0.309 0.205 0.495-0.074 0.364-0.205 0.495-0.309 0.205-0.495 0.205z"/></g><path d="m260.3 126c-0.292-0.539-0.73-0.984-1.263-1.285-2.45-1.372-4.921-0.521-6.132 1.26-1.229-1.802-3.749-2.653-6.23-1.207-0.45 0.265-0.826 0.639-1.092 1.088-1.127 1.887-0.907 3.784 0.038 5.135 0.017 0.024 0.036 0.048 0.056 0.07 0.021 0.028 1.225 1.424 1.978 2.187 0.644 0.648 2.233 2.132 4.515 3.973 0.202 0.163 0.455 0.252 0.715 0.252 0.261 0 0.513-0.089 0.716-0.252 1.355-1.085 2.45-2.023 3.273-2.737 0.618-0.52 1.202-1.079 1.75-1.673 1.19-1.285 3.78-2.986 1.676-6.811z" fill="#d3b970"/><path d="m230.7 257.1h-75.81c-1.156 0-2.302-0.227-3.371-0.67-1.069-0.442-2.04-1.091-2.858-1.908-0.818-0.818-1.467-1.789-1.91-2.858-0.442-1.068-0.67-2.214-0.67-3.37v-14.54c1e-3 -5.186 2.061-10.16 5.728-13.83s8.64-5.728 13.83-5.728h82.08c3.435 0 6.729 1.364 9.157 3.792 2.429 2.429 3.793 5.723 3.793 9.158-1e-3 3.933-0.777 7.829-2.284 11.46s-3.715 6.935-6.497 9.716c-2.783 2.781-6.086 4.986-9.721 6.49s-7.531 2.278-11.46 2.277z" fill="#ffe18b"/><path d="m113.5 258.5c-3.139-0.065-6.234-0.748-9.108-2.009-2.875-1.261-5.473-3.076-7.646-5.342-2.173-2.265-3.878-4.936-5.019-7.861-1.141-2.924-1.694-6.045-1.628-9.183l1.306-62.81c0.0762-3.606 1.582-7.035 4.185-9.533 2.604-2.497 6.093-3.858 9.7-3.784l20.6 0.43c3.604 0.079 7.03 1.585 9.524 4.188s3.852 6.089 3.776 9.693l-1.291 62.81c-0.065 3.138-0.748 6.233-2.009 9.108-1.261 2.874-3.077 5.472-5.342 7.645s-4.936 3.879-7.861 5.02c-2.924 1.14-6.045 1.693-9.183 1.628z" fill="#ffe18b"/><g fill="#262626"><path d="m225.6 214.2h-19c-0.186 0-0.364-0.074-0.495-0.205s-0.205-0.309-0.205-0.495 0.074-0.364 0.205-0.495 0.309-0.205 0.495-0.205h19c0.186 0 0.364 0.074 0.495 0.205s0.205 0.309 0.205 0.495-0.074 0.364-0.205 0.495-0.309 0.205-0.495 0.205z"/><path d="m203.6 112.4c-1.006 0-1.99-0.299-2.826-0.857-0.837-0.559-1.489-1.353-1.875-2.283-0.385-0.929-0.486-1.952-0.291-2.938 0.196-0.987 0.679-1.894 1.39-2.606s1.616-1.198 2.603-1.395c0.986-0.198 2.009-0.099 2.939 0.285 0.93 0.383 1.726 1.034 2.286 1.87 0.561 0.835 0.861 1.818 0.863 2.824 1e-3 0.669-0.13 1.332-0.385 1.95-0.256 0.619-0.63 1.181-1.103 1.654-0.472 0.474-1.034 0.85-1.652 1.106-0.618 0.257-1.28 0.389-1.949 0.39zm0-8.778c-0.73 0-1.444 0.216-2.051 0.622-0.606 0.406-1.079 0.983-1.358 1.657-0.279 0.675-0.352 1.417-0.208 2.133 0.143 0.716 0.495 1.373 1.012 1.889 0.517 0.515 1.175 0.866 1.892 1.007 0.716 0.141 1.458 0.067 2.132-0.214s1.249-0.756 1.653-1.364c0.405-0.608 0.619-1.322 0.617-2.052-4e-3 -0.976-0.394-1.911-1.085-2.601-0.692-0.689-1.628-1.077-2.604-1.077z"/><path d="m139.3 174.1c-0.186 0-0.364-0.074-0.495-0.205s-0.205-0.309-0.205-0.495c-0.091-13.97-11.52-14.27-12-14.27-0.185 0-0.363-0.074-0.495-0.205-0.131-0.131-0.205-0.309-0.205-0.495s0.074-0.364 0.205-0.495c0.132-0.131 0.31-0.205 0.495-0.205 0.133 0 13.28 0.304 13.38 15.68 0 0.186-0.074 0.364-0.205 0.495-0.131 0.132-0.309 0.205-0.495 0.205z"/><path d="m180.2 143.4h-21.7c-0.186 0-0.364-0.074-0.495-0.205-0.132-0.131-0.205-0.309-0.205-0.495s0.073-0.364 0.205-0.495c0.131-0.131 0.309-0.205 0.495-0.205h21.7c0.185 0 0.363 0.074 0.495 0.205 0.131 0.131 0.205 0.309 0.205 0.495s-0.074 0.364-0.205 0.495c-0.132 0.131-0.31 0.205-0.495 0.205z"/><path d="m159.6 254.3c-0.186 0-0.364-0.074-0.495-0.205s-0.205-0.309-0.205-0.495v-31.75c0-0.186 0.074-0.364 0.205-0.495s0.309-0.205 0.495-0.205 0.364 0.074 0.495 0.205 0.205 0.309 0.205 0.495v31.75c0 0.186-0.074 0.364-0.205 0.495s-0.309 0.205-0.495 0.205z"/><path d="m130.8 171.1h-31.75c-0.1856 0-0.3637-0.074-0.4949-0.205-0.1313-0.131-0.2051-0.309-0.2051-0.495s0.0738-0.364 0.2051-0.495c0.1312-0.131 0.3093-0.205 0.4949-0.205h31.75c0.185 0 0.364 0.074 0.495 0.205s0.205 0.309 0.205 0.495-0.074 0.364-0.205 0.495-0.31 0.205-0.495 0.205z"/><path d="m54.54 218.6c-0.1435 1e-3 -0.2835-0.043-0.4012-0.125s-0.2074-0.198-0.2568-0.333c-4.06-11.07-12.45-20.07-12.54-20.15-0.1277-0.135-0.1964-0.315-0.1912-0.501 0.0053-0.186 0.0841-0.362 0.2192-0.49 0.135-0.127 0.3152-0.196 0.501-0.191 0.1858 6e-3 0.3618 0.084 0.4895 0.219 0.084 0.091 8.673 9.282 12.83 20.65 0.0632 0.175 0.0548 0.367-0.0232 0.535-0.0781 0.167-0.2195 0.298-0.3933 0.361-0.0781 0.025-0.16 0.034-0.2415 0.028z"/><path d="m58.5 219.7c-0.1857 0-0.3637-0.074-0.495-0.205-0.1313-0.132-0.205-0.31-0.205-0.495v-9.587c0-0.186 0.0737-0.364 0.205-0.495s0.3093-0.205 0.495-0.205c0.1856 0 0.3637 0.074 0.4949 0.205 0.1313 0.131 0.2051 0.309 0.2051 0.495v9.587c0 0.185-0.0738 0.363-0.2051 0.495-0.1312 0.131-0.3093 0.205-0.4949 0.205z"/></g><path d="m79.12 233.4c-1e-3 -2.292-0.9117-4.489-2.532-6.109-1.62-1.621-3.818-2.532-6.109-2.532h-1.925v-6.528h-23.82v6.531h-1.925c-2.292 0-4.49 0.91-6.11 2.531s-2.531 3.819-2.531 6.11c0.0027 2.29 0.9145 4.485 2.535 6.103s3.817 2.526 6.107 2.525c-1.135 0-2.258 0.223-3.307 0.657-1.048 0.433-2.001 1.07-2.804 1.872s-1.439 1.754-1.873 2.803c-0.4343 1.048-0.6578 2.171-0.6578 3.306-5e-4 1.135 0.2227 2.259 0.6568 3.308 0.4341 1.048 1.071 2.001 1.873 2.803 0.8025 0.803 1.755 1.44 2.804 1.874 1.049 0.434 2.172 0.657 3.308 0.656h27.67c2.292 0 4.49-0.91 6.11-2.531 1.621-1.62 2.531-3.818 2.531-6.11-1e-3 -2.291-0.9118-4.488-2.532-6.108s-3.818-2.53-6.109-2.53c2.29 0 4.486-0.909 6.107-2.527 1.62-1.619 2.532-3.814 2.535-6.104z" fill="#f9b800"/><g fill="#262626"><path d="m70.85 242.8h-9.762c-0.1856 0-0.3637-0.074-0.495-0.205-0.1312-0.131-0.205-0.309-0.205-0.495s0.0738-0.364 0.205-0.495c0.1313-0.131 0.3094-0.205 0.495-0.205h9.762c0.1857 0 0.3637 0.074 0.495 0.205s0.205 0.309 0.205 0.495-0.0737 0.364-0.205 0.495-0.3093 0.205-0.495 0.205z"/><path d="m47.4 242.8h-5.11c-0.1857 0-0.3637-0.074-0.495-0.205s-0.205-0.309-0.205-0.495 0.0737-0.364 0.205-0.495 0.3093-0.205 0.495-0.205h5.11c0.1856 0 0.3637 0.074 0.495 0.205 0.1312 0.131 0.205 0.309 0.205 0.495s-0.0738 0.364-0.205 0.495c-0.1313 0.131-0.3094 0.205-0.495 0.205z"/><path d="m56.65 220.3c6.698 0 12.13-1.131 12.13-2.527s-5.43-2.527-12.13-2.527c-6.698 0-12.13 1.131-12.13 2.527s5.43 2.527 12.13 2.527z"/></g><path d="m58.5 209.4c3.16 0 5.722-2.562 5.722-5.723 0-3.16-2.562-5.722-5.722-5.722-3.16 0-5.722 2.562-5.722 5.722 0 3.161 2.562 5.723 5.722 5.723z" fill="#ffbb45"/><path d="m39.79 201.3c3.387 0 6.132-2.745 6.132-6.132s-2.745-6.132-6.132-6.132-6.132 2.745-6.132 6.132 2.745 6.132 6.132 6.132z" fill="#ffbb45"/><path d="m113.6 107.1c-0.7-1.911-1.711-4.365-3.132-6.416-1.204-1.75-2.58-2.485-4.092-2.222-0.437 0.052-0.857 0.2-1.23 0.434-0.374 0.233-0.691 0.547-0.929 0.917-1.194 1.914-0.399 5.292 0 6.65l0.052 0.175-1.333 0.423-0.063-0.206c-0.557-1.918-1.281-5.478 0.157-7.784 0.341-0.539 0.796-0.997 1.333-1.341s1.143-0.566 1.775-0.651c2.069-0.35 3.966 0.609 5.485 2.8s2.551 4.739 3.293 6.724z" fill="#262626"/></svg>
