<?xml version="1.0" encoding="UTF-8"?>
<svg version="1.1" viewBox="0 0 714 600" xmlns="http://www.w3.org/2000/svg"><path d="m297.3 136.1-227.4 400.7h586.3l-215.7-400.7z" fill="#ffe18b"/><path d="m488.1 312.2c3.128-6.34 4.774-13.31 4.813-20.38 0.038-7.07-1.531-14.06-4.59-20.43-3.058-6.374-7.527-11.97-13.07-16.36-5.54-4.393-12.01-7.469-18.91-8.996-2.973-0.651-5.687-2.169-7.797-4.362v-0.036c-4.041-4.227-4.734-8.018-10.47-19.51-0.614-1.243-1.128-2.242-1.428-2.813l-47.76 18.52 12.94 39.58c-2.662 8.357-2.914 17.3-0.727 25.79 2.187 8.494 6.725 16.2 13.09 22.23 6.367 6.032 14.31 10.14 22.91 11.87 8.6 1.724 17.51 0.988 25.71-2.124 0.392 3.92 1.865 7.653 4.255 10.78 2.39 3.131 5.602 5.537 9.28 6.949 3.677 1.412 7.674 1.775 11.54 1.048 3.872-0.727 7.465-2.515 10.38-5.164 2.915-2.65 5.036-6.057 6.128-9.842 1.091-3.784 1.11-7.798 0.054-11.59s-3.146-7.221-6.036-9.898c-2.889-2.677-6.466-4.498-10.33-5.261z" fill="#262626"/><path d="m347.6 336.3c12.87 0 23.3-10.43 23.3-23.3s-10.43-23.3-23.3-23.3-23.3 10.43-23.3 23.3 10.43 23.3 23.3 23.3z" fill="#262626"/><path d="m422.5 251.5c0.021-4.099-1.572-8.041-4.436-10.97-2.863-2.933-6.767-4.621-10.86-4.698l-0.964-10.5c-0.283-3.328-1.22-6.568-2.758-9.534-1.537-2.966-3.645-5.599-6.202-7.749-2.557-2.149-5.513-3.773-8.698-4.778-3.186-1.006-6.539-1.372-9.867-1.079l-38.66 3.605c-5.061 0.502-9.718 2.991-12.95 6.921-3.23 3.929-4.77 8.979-4.282 14.04l4.284 47.22c0.338 3.966 1.455 7.825 3.287 11.36s4.344 6.67 7.39 9.231 6.568 4.496 10.36 5.693c3.796 1.198 7.79 1.635 11.75 1.286l1.793-0.172 2.42 26.18 51.07-4.756-2.856-31h-0.042l-2.271-24.93c3.536-0.728 6.71-2.657 8.986-5.459 2.276-2.801 3.514-6.304 3.502-9.914z" fill="#fff"/><g fill="#262626"><path d="m406.9 259c-1.198 0-2.37-0.356-3.367-1.022s-1.774-1.612-2.233-2.72-0.579-2.327-0.345-3.502c0.234-1.176 0.811-2.256 1.659-3.104s1.928-1.425 3.104-1.659 2.395-0.114 3.502 0.345c1.108 0.459 2.055 1.235 2.721 2.232s1.021 2.169 1.021 3.368c-2e-3 1.607-0.641 3.148-1.777 4.284-1.137 1.137-2.677 1.776-4.285 1.778zm0-9.282c-0.634 0-1.253 0.188-1.781 0.54-0.527 0.353-0.938 0.853-1.18 1.439-0.243 0.586-0.307 1.23-0.183 1.852s0.429 1.193 0.878 1.642c0.448 0.448 1.019 0.753 1.641 0.877s1.266 0.06 1.852-0.182c0.586-0.243 1.087-0.654 1.439-1.181s0.54-1.147 0.54-1.781c-5e-3 -0.847-0.345-1.658-0.946-2.256-0.6-0.597-1.412-0.934-2.26-0.936z"/><path d="m361.6 301.4 30.41-3.777c0.195-0.024 0.393 0.022 0.558 0.13s0.285 0.271 0.341 0.461c0.055 0.189 0.04 0.392-0.041 0.571-0.081 0.18-0.223 0.325-0.401 0.409l-29.77 14.22z"/><path d="m402.4 255.5c-0.335 6e-3 -0.662-0.105-0.923-0.316-0.261-0.21-0.44-0.505-0.505-0.834-0.328-1.62-0.225-3.297 0.299-4.865 0.523-1.567 1.45-2.97 2.685-4.067 1.194-1.007 2.612-1.714 4.135-2.06 1.523-0.347 3.107-0.324 4.619 0.068 0.364 0.102 0.673 0.344 0.86 0.673 0.186 0.329 0.233 0.719 0.133 1.083-0.102 0.365-0.344 0.674-0.673 0.86-0.33 0.186-0.719 0.234-1.084 0.133-1.05-0.264-2.148-0.278-3.205-0.04s-2.043 0.722-2.878 1.411c-0.86 0.764-1.504 1.741-1.868 2.832-0.363 1.092-0.433 2.26-0.203 3.387 0.038 0.184 0.038 0.374 2e-3 0.558-0.036 0.185-0.108 0.361-0.212 0.517-0.104 0.157-0.238 0.291-0.395 0.396-0.156 0.104-0.331 0.177-0.516 0.214-0.089 0.023-0.18 0.04-0.271 0.05z"/><path d="m332 256.2c1.668 0 3.02-1.353 3.02-3.021s-1.352-3.02-3.02-3.02-3.02 1.352-3.02 3.02 1.352 3.021 3.02 3.021z"/><path d="m364.2 252.5c1.668 0 3.02-1.352 3.02-3.02s-1.352-3.02-3.02-3.02-3.02 1.352-3.02 3.02 1.352 3.02 3.02 3.02z"/><path d="m345 265.2c-0.114 1e-3 -0.226-0.014-0.336-0.042-2.278-0.55-4.634-1.378-4.798-3.285-0.017-0.723 0.252-1.424 0.75-1.949 0.142-0.186 0.307-0.4 0.485-0.678 0.667-1.069 1.005-2.311 0.971-3.57l-0.064-13.17c0-0.379 0.15-0.742 0.418-1.01s0.631-0.418 1.01-0.418 0.742 0.15 1.01 0.418 0.418 0.631 0.418 1.01l0.064 13.17c0.019 1.789-0.476 3.546-1.428 5.062-0.228 0.35-0.414 0.607-0.578 0.821 0.758 0.368 1.559 0.639 2.385 0.807 0.344 0.078 0.646 0.281 0.85 0.569 0.203 0.288 0.293 0.642 0.251 0.992s-0.212 0.673-0.477 0.905c-0.265 0.233-0.607 0.359-0.96 0.354z"/><path d="m350 277.8c-1.93-0.027-3.831-0.476-5.569-1.314-0.337-0.173-0.592-0.473-0.708-0.834-0.115-0.361-0.083-0.753 0.09-1.09s0.473-0.591 0.834-0.707 0.753-0.084 1.09 0.089c0.043 0 3.335 1.671 6.305 0.714 0.81-0.294 1.552-0.75 2.181-1.341 0.628-0.59 1.13-1.302 1.475-2.093 0.077-0.178 0.189-0.339 0.331-0.472 0.141-0.134 0.308-0.237 0.491-0.303s0.377-0.095 0.571-0.084c0.194 0.012 0.384 0.062 0.557 0.149 0.174 0.088 0.328 0.209 0.453 0.358s0.219 0.321 0.275 0.507 0.073 0.382 0.051 0.575-0.084 0.38-0.18 0.548c-0.508 1.135-1.243 2.154-2.16 2.993-0.918 0.839-1.998 1.48-3.174 1.884-0.943 0.293-1.926 0.435-2.913 0.421z"/></g><path d="m413.8 307.8-51.67 4.767 2.194 23.78 51.67-4.766z" fill="#f9b800"/><path d="m340.8 207.6c4.541-0.357 8.875 3.377 11.42 6.697 4.284 5.598 6.09 12.42 9.389 18.56 6.547 12.14 22.49 13.66 34.11 8.604l43.77-16.33c-1.086-3.492-6.698-23.23-26.77-32.79-9.287-4.344-19.64-5.863-29.79-4.37l-36.84 1.928c-4.287 0.193-8.459 1.451-12.14 3.663-6.661 4.105-13.94 12.85-11.37 31.32 0.587-4.541 2.721-8.741 6.042-11.89 3.321-3.152 7.627-5.064 12.19-5.413z" fill="#262626"/><path d="m325.7 330s-16.56 2.32-27.45 35.57c-2.692 8.225-5.548 16.36-8.847 24.39l-22.33 50.65 16.26 69.89 36.45-23.7-12.17-31.48c-6.84-16.42-8.853-34.93-3.691-51.94z" fill="#fff"/><path d="m468.5 465.1-151.7 17.77c-6.804-16.87-8.111-18.42-14.91-35.28-5.561-13.78-6.283-29.03-2.049-43.28l21.23-71.15c0.466-1.58 1.418-2.974 2.72-3.984 1.302-1.009 2.888-1.584 4.534-1.643l133.8-5.09c3.263 58.58 3.12 84.07 6.347 142.6z" fill="#f9b800"/><g fill="#fff"><path d="m304.6 276.7c4.741 2.713 7.518 7.668 9.996 12.34 2.868 5.364 5.38 10.91 7.518 16.61 4.28 11.36 7.029 23.24 8.175 35.33 1.127 11.83 0.559 23.76-1.685 35.42-2.131 10.95-5.766 21.56-10.8 31.52-5.036 9.991-11.52 19.18-19.24 27.28-0.952 1.014-1.942 2.009-2.97 2.985-1.985 1.921 1.043 4.948 3.028 3.027 8.321-8.089 15.39-17.37 20.98-27.55 5.619-10.17 9.791-21.07 12.4-32.39 2.704-11.91 3.687-24.14 2.92-36.33-0.786-12.6-3.276-25.04-7.404-36.97-2.085-6.053-4.568-11.96-7.433-17.69-2.577-5.155-5.333-10.67-9.667-14.59-1.107-1.013-2.321-1.901-3.62-2.649-2.399-1.371-4.556 2.327-2.142 3.698z"/><path d="m412.2 524.8c-0.534-16.22 2.613-32.35 9.203-47.17 6.544-14.9 16.32-28.17 28.61-38.83 6.426-5.52 13.8-11.03 22.26-12.71 3.754-0.762 7.647-0.451 11.23 0.9 1.469 0.604 2.874 1.355 4.191 2.242 1.327 0.909 2.559 1.95 3.677 3.106 4.934 4.998 8.24 11.71 10.6 18.28 3.142 8.797 5.212 18.07 6.883 27.25 3.545 19.47 4.446 39.34 2.678 59.05-0.219 2.471-0.481 4.936-0.786 7.397-0.142 1.15 1.086 2.142 2.142 2.142 0.564-0.012 1.102-0.242 1.501-0.641s0.629-0.937 0.641-1.501c2.49-20.48 2.144-41.2-1.028-61.58-1.496-9.883-3.694-19.65-6.576-29.22-2.263-7.44-5.39-14.77-10.19-20.94-4.691-6.047-11.2-10.44-18.96-11.11-9.418-0.806-18.31 4.234-25.58 9.697-13.57 10.27-24.62 23.5-32.32 38.68-7.781 15.14-12.06 31.84-12.51 48.87-0.05 2.035 0 4.063 0.043 6.098 0.093 2.749 4.377 2.763 4.284 0z"/><path d="m333.7 488.5c-1.992-11.6-1.949-23.45 0.129-35.03 1.892-10.55 5.298-21.01 10.91-30.19 2.521-4.186 5.612-8.001 9.182-11.34 1.728-1.588 3.591-3.021 5.569-4.284 1.846-1.195 3.802-2.211 5.841-3.035 4.045-1.582 8.366-2.344 12.71-2.242 4.112 0.05 8.168 0.967 11.9 2.692 3.877 1.802 7.147 4.692 9.411 8.318 2.649 4.32 3.698 9.611 2.142 14.37-0.687 2.077-1.857 3.961-3.413 5.498-1.514 1.485-3.62 2.856-5.848 3.049-0.929 0.066-1.86-0.085-2.719-0.444-0.86-0.358-1.623-0.913-2.229-1.62-1.429-1.55-2.476-3.413-3.056-5.441-3.199-10.53 1.35-22.04 6.769-30.99 5.311-8.626 12.14-16.22 20.15-22.42 8.36-6.473 17.68-11.6 27.62-15.19 11-3.962 22.45-6.521 34.09-7.618 2.856-0.286 5.712-0.5 8.568-0.643 0.563-0.014 1.1-0.245 1.499-0.643 0.398-0.399 0.628-0.935 0.643-1.499 0-0.568-0.226-1.113-0.627-1.514-0.402-0.402-0.947-0.628-1.515-0.628-12.5 0.542-24.89 2.592-36.9 6.105-11.25 3.305-21.9 8.366-31.57 14.99-9.073 6.25-16.95 14.08-23.25 23.12-6.534 9.525-11.95 21.38-10.57 33.2 0.614 5.291 2.535 10.83 7.14 13.92 4.927 3.285 11.12 1.014 14.96-2.856 1.916-1.991 3.368-4.381 4.253-6.999s1.181-5.399 0.866-8.145c-0.675-5.632-3.288-10.85-7.39-14.77-6.897-6.633-17.01-8.99-26.32-7.776-10.35 1.35-19.33 7.062-26.02 14.95-7.14 8.447-11.78 18.78-14.76 29.37-3.426 12.2-4.635 24.92-3.57 37.56 0.265 3.134 0.714 6.269 1.214 9.375 0.152 0.547 0.515 1.011 1.009 1.291s1.079 0.352 1.626 0.201c0.542-0.16 1.001-0.524 1.281-1.015 0.279-0.491 0.358-1.072 0.218-1.62z"/><path d="m547.5 458.5h0.078l-10.86-25.28-22.85-53.23c-3.289-7.654-6.578-15.31-9.867-22.98-4.484-10.43-8.14-21.72-17.59-28.83-12.14-9.118-30.49-11-43-1.578-10.65 8.011-13.57 22.56-13.37 35.23 0.257 14.36 4.998 28.32 11.24 41.1 6.426 13.17 11.71 26.88 17.61 40.29l9.639 21.89-144.6 16.91c-4.796 0.556-9.478 1.85-13.88 3.834-6.069 2.747-12.24 5.698-18.52 8.854-3.679 1.846-7.273 3.708-10.78 5.583l9.075 36.41h206.2c40.55 0 67.34-41.58 51.42-78.22z"/></g><g fill="#262626"><path d="m608.7 427.4h-48.55c-2.294-1e-3 -4.494-0.914-6.116-2.536-1.623-1.623-2.535-3.823-2.537-6.117v-48.6c2e-3 -2.295 0.914-4.495 2.537-6.117 1.622-1.623 3.822-2.535 6.116-2.537h48.55c2.295 2e-3 4.495 0.914 6.118 2.537 1.622 1.622 2.534 3.822 2.536 6.117v48.6c-2e-3 2.294-0.914 4.494-2.536 6.117-1.623 1.622-3.823 2.535-6.118 2.536zm-48.55-63.05c-1.537 2e-3 -3.01 0.614-4.097 1.7-1.087 1.087-1.698 2.561-1.7 4.098v48.6c2e-3 1.537 0.613 3.01 1.7 4.097s2.56 1.699 4.097 1.7h48.55c1.538-1e-3 3.011-0.613 4.098-1.7s1.698-2.56 1.7-4.097v-48.6c-2e-3 -1.537-0.613-3.011-1.7-4.098-1.087-1.086-2.56-1.698-4.098-1.7z"/><path d="m573.6 389.1c-1.474 0-2.916-0.437-4.141-1.256-1.226-0.819-2.182-1.983-2.746-3.345-0.564-1.363-0.712-2.861-0.424-4.307s0.998-2.774 2.04-3.817c1.042-1.042 2.371-1.752 3.817-2.04s2.944-0.14 4.306 0.424c1.363 0.564 2.527 1.52 3.346 2.746 0.819 1.225 1.256 2.667 1.256 4.141-2e-3 1.976-0.788 3.871-2.185 5.269-1.398 1.397-3.293 2.183-5.269 2.185zm0-12.05c-0.91 0-1.799 0.269-2.555 0.775-0.756 0.505-1.345 1.223-1.693 2.063s-0.439 1.765-0.262 2.657 0.615 1.711 1.258 2.354c0.644 0.643 1.463 1.081 2.355 1.259 0.892 0.177 1.816 0.086 2.656-0.262 0.841-0.348 1.559-0.937 2.064-1.693 0.505-0.757 0.775-1.646 0.775-2.555-8e-3 -1.215-0.495-2.378-1.356-3.236-0.862-0.857-2.027-1.339-3.242-1.341z"/><path d="m595.2 412.2c-1.476 0-2.919-0.438-4.145-1.258-1.227-0.821-2.182-1.987-2.746-3.351-0.563-1.365-0.708-2.865-0.418-4.312 0.291-1.447 1.004-2.775 2.05-3.816s2.378-1.748 3.826-2.032c1.449-0.284 2.948-0.131 4.31 0.439 1.361 0.569 2.523 1.53 3.338 2.761 0.815 1.23 1.246 2.675 1.239 4.151-0.012 1.97-0.802 3.856-2.198 5.246-1.397 1.39-3.286 2.171-5.256 2.172zm0-12.05c-0.91 0-1.799 0.27-2.555 0.775s-1.346 1.223-1.694 2.064c-0.348 0.84-0.439 1.764-0.261 2.656 0.177 0.892 0.615 1.712 1.258 2.355s1.463 1.081 2.355 1.258c0.891 0.177 1.816 0.086 2.656-0.262s1.559-0.937 2.064-1.693 0.775-1.645 0.775-2.555c-2e-3 -1.219-0.487-2.387-1.349-3.249s-2.031-1.347-3.249-1.349z"/><path d="m570.2 416.7c-0.252-2e-3 -0.499-0.074-0.714-0.207-0.323-0.195-0.556-0.511-0.647-0.878-0.091-0.366-0.033-0.754 0.161-1.078l25.07-41.62c0.097-0.161 0.225-0.301 0.376-0.413 0.151-0.111 0.323-0.192 0.505-0.237s0.372-0.053 0.558-0.025c0.185 0.028 0.364 0.092 0.524 0.189 0.161 0.097 0.301 0.225 0.413 0.376 0.111 0.151 0.192 0.323 0.237 0.505 0.045 0.183 0.054 0.372 0.026 0.558-0.029 0.186-0.093 0.364-0.19 0.525l-25.07 41.61c-0.129 0.215-0.312 0.392-0.531 0.513-0.22 0.122-0.467 0.184-0.718 0.179z"/><path d="m686.2 325.1h-154.3c-3.409 0-6.678-1.354-9.088-3.764-2.41-2.411-3.764-5.68-3.764-9.088v-120.5c0-3.409 1.354-6.678 3.764-9.088s5.679-3.764 9.088-3.764h154.3c3.409 0 6.677 1.354 9.088 3.764 2.41 2.41 3.764 5.679 3.764 9.088v120.5c-4e-3 3.406-1.36 6.672-3.769 9.079-2.41 2.407-5.677 3.759-9.083 3.759zm-154.3-143.4c-2.651 0-5.194 1.053-7.069 2.928-1.874 1.874-2.927 4.417-2.927 7.068v120.5c0 2.651 1.053 5.194 2.927 7.068 1.875 1.875 4.418 2.928 7.069 2.928h154.3c2.651 0 5.194-1.053 7.068-2.928 1.875-1.874 2.928-4.417 2.928-7.068v-120.5c0-2.651-1.053-5.194-2.928-7.069-1.874-1.874-4.417-2.927-7.068-2.927z"/></g><path d="m601.8 207.2h-55.12c-3.564 0-6.454 2.89-6.454 6.455v84.09c0 3.564 2.89 6.454 6.454 6.454h55.12c3.565 0 6.455-2.89 6.455-6.454v-84.09c0-3.565-2.89-6.455-6.455-6.455z" fill="#f9b800"/><path d="m646.9 210.2h-14.36c-1.98 0-3.585 1.605-3.585 3.584v14.36c0 1.979 1.605 3.584 3.585 3.584h14.36c1.98 0 3.584-1.605 3.584-3.584v-14.36c0-1.979-1.604-3.584-3.584-3.584z" fill="#fff1c9"/><path d="m678.5 210.2h-14.36c-1.98 0-3.585 1.605-3.585 3.584v14.36c0 1.979 1.605 3.584 3.585 3.584h14.36c1.98 0 3.584-1.605 3.584-3.584v-14.36c0-1.979-1.604-3.584-3.584-3.584z" fill="#fff1c9"/><g fill="#262626"><path d="m682 249.4h-51.66c-0.378 0-0.742-0.15-1.01-0.418-0.267-0.268-0.418-0.631-0.418-1.01s0.151-0.742 0.418-1.01c0.268-0.268 0.632-0.418 1.01-0.418h51.66c0.379 0 0.742 0.15 1.01 0.418s0.418 0.631 0.418 1.01-0.15 0.742-0.418 1.01-0.631 0.418-1.01 0.418z"/><path d="m682 263.9h-51.66c-0.378 0-0.742-0.151-1.01-0.418-0.267-0.268-0.418-0.631-0.418-1.01s0.151-0.742 0.418-1.01c0.268-0.268 0.632-0.418 1.01-0.418h51.66c0.379 0 0.742 0.15 1.01 0.418s0.418 0.631 0.418 1.01-0.15 0.742-0.418 1.01c-0.268 0.267-0.631 0.418-1.01 0.418z"/><path d="m666.6 279.5h-36.21c-0.378 0-0.742-0.15-1.01-0.418-0.267-0.268-0.418-0.631-0.418-1.01 0-0.378 0.151-0.742 0.418-1.01 0.268-0.267 0.632-0.418 1.01-0.418h36.21c0.379 0 0.742 0.151 1.01 0.418 0.268 0.268 0.418 0.632 0.418 1.01 0 0.379-0.15 0.742-0.418 1.01s-0.631 0.418-1.01 0.418z"/></g><path d="m582.5 235.4v3.57c-1e-3 1.79-0.695 3.509-1.938 4.797-1.242 1.287-2.936 2.043-4.724 2.108h-1.235c-1.837-0.058-3.579-0.829-4.856-2.15-1.277-1.322-1.989-3.089-1.984-4.926v-3.392c0-1.083-0.43-2.122-1.196-2.888-0.766-0.765-1.805-1.196-2.888-1.196s-2.122 0.431-2.888 1.196c-0.766 0.766-1.196 1.805-1.196 2.888v37.08c0 0.685 0.134 1.363 0.396 1.995s0.646 1.207 1.13 1.691 1.059 0.868 1.691 1.13c0.633 0.262 1.31 0.397 1.995 0.397h20.65c0.684 0 1.362-0.135 1.994-0.397 0.633-0.262 1.207-0.646 1.691-1.13s0.868-1.059 1.13-1.691 0.397-1.31 0.397-1.995v-37.08c0-1.083-0.43-2.122-1.196-2.888s-1.805-1.196-2.888-1.196-2.122 0.43-2.888 1.196-1.196 1.805-1.196 2.888z" fill="#fff"/><path d="m496.9 451.6c0-3.448-12.22-6.247-27.31-6.247-15.09 0-27.31 2.799-27.31 6.247l-2.935 30.82c6.841-1.114 16.42-1.186 24.88 4.07 3.014 1.929 6.341 3.319 9.832 4.105 5.876 1.235 14.72 1.528 25.37-2.985z" fill="#fff"/><path d="m481.8 492.8c-2.689 3e-3 -5.371-0.269-8.004-0.814-3.648-0.824-7.127-2.274-10.28-4.284-8.211-5.083-17.53-4.912-23.9-3.877l-1.828 0.3 3.113-32.6c0.157-6.005 18.84-7.597 28.73-7.597s28.62 1.578 28.74 7.611l2.585 36.99-0.943 0.392c-5.746 2.512-11.94 3.834-18.21 3.884zm-35.13-12.42c6.453-0.115 12.81 1.579 18.35 4.891 2.869 1.84 6.037 3.166 9.361 3.92 5.226 1.099 13.5 1.527 23.56-2.514l-2.428-35.08c0-1.156-7.783-4.819-25.88-4.819-18.1 0-25.88 3.663-25.88 4.819v0.136l-2.77 29.01c1.887-0.24 3.788-0.362 5.69-0.364z" fill="#262626"/><path d="m501.3 485.1c-11.33 4.512-20.76 4.22-27.01 2.984-3.687-0.784-7.218-2.171-10.45-4.105-9.047-5.262-19.21-5.184-26.49-4.077l-2.977 29.32c-0.381 3.735 0.027 7.508 1.195 11.08 1.169 3.567 3.073 6.85 5.59 9.636s5.59 5.013 9.021 6.537 7.143 2.311 10.9 2.311h15.3c3.693 0 7.346-0.762 10.73-2.238s6.43-3.634 8.943-6.34 4.44-5.901 5.662-9.386 1.712-7.185 1.439-10.87z" fill="#f9b800"/><g fill="#262626"><path d="m467.5 520.2h-0.129c-0.376-0.034-0.724-0.217-0.966-0.507-0.243-0.291-0.36-0.665-0.326-1.042l8.889-98.39c0.128-1.495 0.813-2.887 1.921-3.9 1.107-1.012 2.555-1.57 4.056-1.563h21.15c0.379 0 0.742 0.151 1.01 0.419s0.418 0.631 0.418 1.009c0 0.379-0.15 0.742-0.418 1.01s-0.631 0.418-1.01 0.418h-21.15c-0.785-1e-3 -1.542 0.291-2.122 0.82-0.58 0.528-0.942 1.255-1.013 2.036l-8.889 98.39c-0.032 0.354-0.196 0.684-0.459 0.925-0.263 0.24-0.606 0.374-0.962 0.374z"/><path d="m469.6 459.1c-0.821 0-1.642 0-2.456-0.043-8.79-0.332-17.42-2.417-25.4-6.133-0.17-0.079-0.323-0.191-0.45-0.33-0.127-0.138-0.225-0.3-0.289-0.476-0.065-0.177-0.094-0.364-0.086-0.551 8e-3 -0.188 0.053-0.372 0.133-0.542 0.079-0.17 0.191-0.323 0.329-0.45 0.139-0.127 0.3-0.226 0.477-0.29 0.176-0.064 0.364-0.093 0.551-0.085 0.188 8e-3 0.372 0.053 0.542 0.132 7.62 3.555 15.87 5.551 24.28 5.869 10.03 0.361 20.01-1.65 29.12-5.869 0.17-0.08 0.355-0.126 0.543-0.134 0.188-9e-3 0.376 0.02 0.553 0.084s0.339 0.163 0.478 0.29c0.139 0.128 0.251 0.281 0.33 0.452s0.124 0.356 0.131 0.544-0.022 0.376-0.088 0.553c-0.065 0.176-0.165 0.338-0.294 0.476-0.128 0.138-0.282 0.249-0.454 0.327-8.76 4.051-18.29 6.158-27.95 6.176z"/><path d="m379.3 328.1c-0.364 0-0.715-0.138-0.98-0.388-0.266-0.249-0.426-0.591-0.448-0.955l-0.842-14.52c-0.022-0.379 0.108-0.751 0.36-1.034s0.607-0.455 0.986-0.476c0.379-0.022 0.75 0.107 1.034 0.36 0.283 0.252 0.454 0.607 0.476 0.985l0.842 14.52c0.012 0.188-0.014 0.376-0.075 0.553-0.061 0.178-0.157 0.342-0.281 0.483-0.125 0.14-0.276 0.255-0.446 0.337-0.169 0.082-0.352 0.13-0.54 0.141z"/><path d="m393.8 327c-0.364 1e-3 -0.715-0.138-0.98-0.388-0.266-0.249-0.426-0.591-0.448-0.954l-0.842-14.52c-0.011-0.188 0.015-0.375 0.077-0.553 0.062-0.177 0.158-0.341 0.283-0.481s0.276-0.254 0.446-0.336c0.169-0.082 0.352-0.129 0.54-0.14 0.187-0.011 0.375 0.015 0.552 0.077 0.178 0.062 0.341 0.158 0.482 0.283 0.14 0.125 0.254 0.276 0.336 0.445 0.082 0.17 0.129 0.353 0.14 0.541l0.842 14.55c0.012 0.188-0.014 0.376-0.075 0.553-0.061 0.178-0.157 0.342-0.281 0.483-0.125 0.14-0.276 0.255-0.445 0.337-0.17 0.082-0.353 0.13-0.541 0.141z"/><path d="m245.9 329.9h-151.5c-2.651 0-5.194-1.053-7.068-2.927-1.875-1.875-2.928-4.418-2.928-7.069v-96.69c0-2.651 1.053-5.193 2.928-7.068 1.875-1.874 4.417-2.928 7.068-2.928h151.5c2.652 0 5.194 1.054 7.069 2.928 1.874 1.875 2.927 4.417 2.927 7.068v96.67c3e-3 1.314-0.253 2.616-0.754 3.832-0.501 1.215-1.237 2.319-2.166 3.25-0.928 0.93-2.031 1.669-3.245 2.172-1.214 0.504-2.516 0.763-3.831 0.763zm-151.5-113.8c-1.894 0-3.71 0.752-5.049 2.091s-2.091 3.155-2.091 5.049v96.69c0 1.894 0.7522 3.71 2.091 5.049s3.155 2.091 5.049 2.091h151.5c1.894 0 3.71-0.752 5.049-2.091s2.091-3.155 2.091-5.049v-96.67c0-1.893-0.752-3.709-2.091-5.048s-3.155-2.092-5.049-2.092z"/></g><path d="m232.3 286.4h-64.16c-3.072 0-5.563 2.49-5.563 5.562v2.021c0 3.072 2.491 5.562 5.563 5.562h64.16c3.071 0 5.562-2.49 5.562-5.562v-2.021c0-3.072-2.491-5.562-5.562-5.562z" fill="#ffbb45"/><g fill="#262626"><path d="m234.7 253.1h-69c-0.379 0-0.742-0.15-1.01-0.418-0.267-0.268-0.418-0.631-0.418-1.01s0.151-0.742 0.418-1.01c0.268-0.268 0.631-0.418 1.01-0.418h69c0.379 0 0.742 0.15 1.01 0.418s0.418 0.631 0.418 1.01-0.15 0.742-0.418 1.01-0.631 0.418-1.01 0.418z"/><path d="m225 268.7h-59.26c-0.379 0-0.742-0.15-1.01-0.418s-0.418-0.631-0.418-1.01 0.15-0.742 0.418-1.01c0.268-0.267 0.631-0.418 1.01-0.418h59.26c0.378 0 0.742 0.151 1.009 0.418 0.268 0.268 0.419 0.631 0.419 1.01s-0.151 0.742-0.419 1.01c-0.267 0.268-0.631 0.418-1.009 0.418z"/><path d="m116.6 254.6c-0.379 0-0.742-0.15-1.01-0.418s-0.418-0.631-0.418-1.01c-0.122-4.998 1.742-8.018 3.327-9.66 1.767-1.853 4.188-2.943 6.747-3.035 2.499 0.043 4.88 1.069 6.626 2.856 1.621 1.628 3.57 4.656 3.485 9.825 0 0.379-0.151 0.742-0.419 1.01-0.267 0.267-0.631 0.418-1.009 0.418-0.379 0-0.742-0.151-1.01-0.418-0.268-0.268-0.418-0.631-0.418-1.01 0.05-4.177-1.428-6.533-2.649-7.776-1.216-1.229-2.856-1.95-4.584-2.013-1.793 0.071-3.486 0.84-4.72 2.142-1.728 1.785-2.599 4.413-2.52 7.604 0 0.379-0.151 0.742-0.418 1.01-0.268 0.268-0.631 0.418-1.01 0.418z"/></g><path d="m142.7 301.3h-34.73c-0.851 0-1.693-0.181-2.468-0.533-0.775-0.351-1.466-0.864-2.026-1.504-0.561-0.641-0.978-1.394-1.224-2.208-0.246-0.815-0.314-1.673-0.201-2.517l4.841-36.11c0.193-1.432 0.9-2.745 1.988-3.696 1.089-0.951 2.486-1.474 3.931-1.473h24.24c1.423-2e-3 2.799 0.505 3.881 1.43 1.082 0.924 1.797 2.205 2.017 3.611l5.662 36.11c0.134 0.853 0.082 1.725-0.154 2.555-0.235 0.831-0.649 1.6-1.211 2.255-0.562 0.656-1.26 1.181-2.045 1.54s-1.639 0.543-2.502 0.54z" fill="#fff1c9"/><path d="m396.2 538.4h-115.4v-24.95h115.4c1.594 0 3.123 0.633 4.251 1.761 1.127 1.127 1.761 2.656 1.761 4.251v12.92c1e-3 0.79-0.154 1.573-0.456 2.303s-0.744 1.394-1.303 1.953c-0.558 0.559-1.221 1.002-1.951 1.305-0.73 0.302-1.512 0.458-2.302 0.458z" fill="#262626"/><path d="m293.8 538.4h-135.3c-2.522 0.024-4.983-0.767-7.019-2.256-2.035-1.489-3.535-3.595-4.277-6.005l-33.12-112.3c-2.142-7.275 3.491-14.52 11.3-14.52h127.6c2.632-0.03 5.197 0.831 7.278 2.444 2.081 1.612 3.555 3.882 4.181 6.439z" fill="#262626"/><path d="m195.6 500.3c10.35 0 18.74-8.391 18.74-18.74 0-10.35-8.391-18.74-18.74-18.74s-18.74 8.391-18.74 18.74c0 10.35 8.392 18.74 18.74 18.74z" fill="#fff1c9"/><path d="m191.5 468.2c-0.32 0-0.63-0.108-0.881-0.306-0.252-0.199-0.429-0.475-0.504-0.786l-2.242-9.182c-0.045-0.183-0.053-0.372-0.024-0.557 0.028-0.186 0.093-0.364 0.191-0.524 0.197-0.324 0.514-0.557 0.882-0.647 0.369-0.09 0.758-0.03 1.082 0.167s0.556 0.514 0.646 0.883l2.242 9.182c0.045 0.182 0.053 0.371 0.025 0.557-0.029 0.186-0.094 0.364-0.191 0.524-0.098 0.161-0.226 0.3-0.377 0.411-0.152 0.111-0.324 0.191-0.506 0.235-0.112 0.029-0.227 0.043-0.343 0.043z" fill="#f9b800"/><path d="m656.2 538.2h-566c-0.3787 0-0.7419-0.15-1.01-0.418s-0.4183-0.631-0.4183-1.01 0.1505-0.742 0.4183-1.01c0.2678-0.267 0.631-0.418 1.01-0.418h566c0.379 0 0.742 0.151 1.01 0.418 0.267 0.268 0.418 0.631 0.418 1.01s-0.151 0.742-0.418 1.01c-0.268 0.268-0.631 0.418-1.01 0.418z" fill="#262626"/><path d="m368.9 154.6c-4.81 7e-3 -9.514-1.413-13.52-4.08-4.002-2.667-7.124-6.462-8.97-10.9-1.845-4.441-2.332-9.331-1.398-14.05s3.247-9.054 6.646-12.46c3.398-3.404 7.73-5.723 12.45-6.664s9.607-0.462 14.05 1.377c4.444 1.84 8.243 4.956 10.92 8.954 2.673 3.999 4.1 8.701 4.1 13.51-0.01 6.439-2.569 12.61-7.119 17.17-4.549 4.556-10.72 7.125-17.16 7.144zm0-45.77c-4.237 0-8.378 1.257-11.9 3.61-3.523 2.354-6.268 5.699-7.89 9.613-1.621 3.914-2.045 8.221-1.219 12.38 0.827 4.155 2.867 7.972 5.863 10.97 2.995 2.995 6.812 5.035 10.97 5.862 4.155 0.826 8.462 0.402 12.38-1.219s7.259-4.367 9.613-7.889c2.354-3.523 3.61-7.664 3.61-11.9-0.015-5.676-2.277-11.12-6.291-15.13-4.013-4.014-9.453-6.276-15.13-6.291z" fill="#fff"/><path d="m369.9 45.71h-2.007c-3.06 0-5.54 2.48-5.54 5.54v45.8c0 3.06 2.48 5.541 5.54 5.541h2.007c3.06 0 5.54-2.481 5.54-5.541v-45.8c0-3.06-2.48-5.54-5.54-5.54z" fill="#262626"/><path d="m367.9 86.72c-15.12 0.228-29.89 4.526-42.77 12.44s-23.39 19.16-30.42 32.54c-0.241 0.456-0.36 0.967-0.346 1.483 0.015 0.516 0.162 1.02 0.429 1.462s0.643 0.807 1.093 1.061c0.449 0.253 0.957 0.386 1.473 0.385h143.2c0.516 0 1.022-0.134 1.471-0.388s0.824-0.62 1.09-1.061c0.266-0.442 0.413-0.945 0.427-1.461 0.014-0.515-0.105-1.025-0.346-1.481-7.199-13.7-18.04-25.15-31.32-33.08-13.28-7.937-28.5-12.05-43.98-11.9z" fill="#fff1c9"/><path d="m324.9 122.4c-9.396 0-17.06-6.347-17.17-6.426-0.29-0.244-0.471-0.593-0.503-0.971s0.087-0.752 0.331-1.042c0.245-0.29 0.594-0.471 0.972-0.503 0.377-0.032 0.752 0.087 1.042 0.331 0.628 0.529 15.48 12.77 28.16 0.086l0.864-0.864 0.992 0.714c0.714 0.514 17.44 12.48 29.78 0.143l0.836-0.843 0.985 0.672c2.811 1.803 5.888 3.152 9.118 3.998 6.676 1.685 12.2 0.4 16.42-3.827l0.885-0.885 0.993 0.756c0.664 0.507 16.47 12.32 28.67 0.129 0.271-0.247 0.627-0.38 0.993-0.371 0.367 8e-3 0.716 0.157 0.976 0.416 0.259 0.259 0.409 0.607 0.419 0.974 0.01 0.366-0.122 0.722-0.368 0.994-12.1 12.1-27.4 3.463-31.42 0.822-4.84 4.284-11.16 5.583-18.36 3.741-3.147-0.834-6.163-2.102-8.96-3.77-12.14 11.05-27.6 2.578-31.65 0-4.648 4.277-9.525 5.726-14.01 5.726z" fill="#d3b970"/><path d="m284.5 500.9c-0.308-8e-3 -0.604-0.115-0.846-0.306-0.241-0.19-0.415-0.453-0.496-0.749-0.08-0.297-0.062-0.612 0.051-0.898s0.315-0.527 0.577-0.689c4.641-2.856 9.453-5.512 14.28-7.976 6.426-3.248 13.04-6.219 19.74-8.825 0.353-0.137 0.746-0.128 1.093 0.024 0.347 0.153 0.619 0.437 0.756 0.79 0.137 0.354 0.129 0.747-0.024 1.094-0.153 0.346-0.437 0.618-0.79 0.756-6.612 2.57-13.17 5.497-19.48 8.71-4.777 2.428-9.518 5.077-14.11 7.854-0.224 0.142-0.484 0.216-0.749 0.215z" fill="#262626"/><path d="m100.2 459.8 8.275-31.33h-46.95l7.454 31.67c-8.466 3.694-15.4 10.2-19.61 18.42-4.217 8.218-5.463 17.64-3.526 26.67s6.936 17.12 14.15 22.88c7.215 5.767 16.2 8.863 25.44 8.761 9.236-0.101 18.15-3.393 25.24-9.317 7.088-5.925 11.91-14.12 13.65-23.19s0.285-18.47-4.111-26.59c-4.397-8.124-11.47-14.48-20.01-17.98z" fill="#fff"/><g fill="#262626"><path d="m84.97 538.3c-9.419-8e-3 -18.55-3.222-25.9-9.113-7.349-5.891-12.47-14.11-14.53-23.3-2.057-9.192-0.9234-18.81 3.214-27.27 4.137-8.462 11.03-15.26 19.55-19.28l-7.604-32.29h50.6l-8.426 31.93c8.666 3.875 15.74 10.61 20.04 19.07 4.3 8.463 5.567 18.14 3.589 27.43s-7.081 17.61-14.46 23.58c-7.376 5.974-16.58 9.237-26.07 9.244zm-21.67-108.4 7.318 31.08-1.092 0.471c-8.167 3.562-14.85 9.838-18.92 17.76-4.069 7.927-5.271 17.02-3.405 25.73s6.688 16.51 13.65 22.07c6.959 5.563 15.63 8.549 24.54 8.452s17.51-3.272 24.35-8.986 11.49-13.62 13.16-22.37c1.676-8.75 0.275-17.81-3.965-25.65-4.241-7.836-11.06-13.96-19.3-17.35l-1.157-0.479 8.118-30.74z"/><path d="m84.95 432.4c14.03 0 25.4-2.41 25.4-5.384 0-2.973-11.37-5.383-25.4-5.383s-25.4 2.41-25.4 5.383c0 2.974 11.37 5.384 25.4 5.384z"/><path d="m78.04 431.3c-0.2914-1e-3 -0.5755-0.091-0.8141-0.258-0.2387-0.167-0.4205-0.404-0.521-0.677-8.668-23.63-26.58-42.84-26.76-43-0.1289-0.137-0.2297-0.297-0.2966-0.473-0.0669-0.175-0.0986-0.362-0.0933-0.549 0.0053-0.188 0.0475-0.373 0.1242-0.544s0.1864-0.326 0.3228-0.455c0.1365-0.129 0.297-0.23 0.4723-0.297 0.1754-0.066 0.3623-0.098 0.5499-0.093s0.3724 0.048 0.5437 0.124c0.1713 0.077 0.3258 0.187 0.4548 0.323 0.1856 0.2 18.49 19.79 27.36 43.98 0.1227 0.351 0.1034 0.737-0.054 1.074-0.1574 0.338-0.4403 0.6-0.7886 0.732-0.1587 0.067-0.3278 0.105-0.4998 0.114z"/><path d="m89.48 431.5c-0.3787 0-0.7419-0.15-1.01-0.418s-0.4183-0.631-0.4183-1.01v-20.45c0-0.379 0.1505-0.742 0.4183-1.01s0.631-0.418 1.01-0.418c0.3788 0 0.742 0.15 1.01 0.418s0.4182 0.631 0.4182 1.01v20.45c0 0.379-0.1504 0.742-0.4182 1.01s-0.631 0.418-1.01 0.418z"/></g><g fill="#ffe18b"><path d="m58.21 373.1h-6.09c-0.1142-0.314-0.2428-0.621-0.3784-0.921l4.434-3.927c0.4695-0.404 0.854-0.897 1.131-1.451 0.2771-0.554 0.4415-1.158 0.4835-1.776 0.0419-0.618-0.0393-1.238-0.239-1.825-0.1998-0.586-0.514-1.127-0.9245-1.591s-0.9091-0.842-1.467-1.111c-0.5577-0.27-1.164-0.426-1.782-0.46-0.6186-0.033-1.238 0.056-1.821 0.264-0.5837 0.208-1.12 0.529-1.579 0.946l-4.67 4.134c-0.0714 0.064-0.1285 0.143-0.1999 0.214-0.2927-0.135-0.5926-0.257-0.8996-0.371v-5.662c-0.0473-1.21-0.561-2.354-1.434-3.193s-2.036-1.308-3.247-1.308-2.374 0.469-3.247 1.308c-0.8725 0.839-1.386 1.983-1.434 3.193v5.662c-0.4327 0.159-0.8569 0.34-1.271 0.543-0.1314-0.163-0.2746-0.316-0.4284-0.457l-4.705-4.063c-0.9471-0.755-2.15-1.113-3.355-1.001-1.206 0.113-2.321 0.689-3.112 1.606-0.7907 0.917-1.195 2.105-1.129 3.314s0.5981 2.346 1.484 3.171l4.727 4.077c0.0374 0.033 0.078 0.061 0.1214 0.086-0.0857 0.2-0.1571 0.407-0.2356 0.614h-5.869c-1.234 5e-3 -2.416 0.499-3.288 1.372s-1.363 2.056-1.367 3.29c0 1.241 0.4925 2.431 1.369 3.31 0.8769 0.878 2.066 1.372 3.307 1.374h5.812l0.1428 0.386h-0.0429l-4.677 4.134c-0.8833 0.835-1.408 1.98-1.462 3.195-0.0541 1.214 0.366 2.402 1.172 3.312 0.8056 0.911 1.934 1.472 3.145 1.566 1.212 0.094 2.413-0.287 3.349-1.062l4.67-4.134 0.1-0.107c0.5106 0.275 1.04 0.514 1.585 0.714v5.612c0.0472 1.21 0.561 2.354 1.434 3.193 0.8725 0.839 2.036 1.308 3.247 1.308 1.211 0 2.374-0.469 3.247-1.308 0.8726-0.839 1.386-1.983 1.434-3.193v-5.555c0.3213-0.121 0.6426-0.25 0.9568-0.4l4.584 3.949c0.9439 0.807 2.17 1.207 3.409 1.11 1.239-0.096 2.388-0.68 3.196-1.624 0.8076-0.944 1.207-2.171 1.111-3.409-0.0965-1.239-0.6809-2.388-1.625-3.196l-4.07-3.513c0.1428-0.321 0.2713-0.65 0.3927-0.978h6.005c1.242 0 2.434-0.493 3.312-1.372 0.8784-0.878 1.372-2.07 1.372-3.312-0.0019-1.241-0.4962-2.43-1.374-3.307s-2.068-1.37-3.31-1.37z"/><path d="m58.21 373.1h-6.09c-0.1142-0.314-0.2428-0.621-0.3784-0.921l4.434-3.927c0.4695-0.404 0.854-0.897 1.131-1.451 0.2771-0.554 0.4415-1.158 0.4835-1.776 0.0419-0.618-0.0393-1.238-0.239-1.825-0.1998-0.586-0.514-1.127-0.9245-1.591s-0.9091-0.842-1.467-1.111c-0.5577-0.27-1.164-0.426-1.782-0.46-0.6186-0.033-1.238 0.056-1.821 0.264-0.5837 0.208-1.12 0.529-1.579 0.946l-4.67 4.134c-0.0714 0.064-0.1285 0.143-0.1999 0.214-0.2927-0.135-0.5926-0.257-0.8996-0.371v-5.662c-0.0473-1.21-0.561-2.354-1.434-3.193s-2.036-1.308-3.247-1.308-2.374 0.469-3.247 1.308c-0.8725 0.839-1.386 1.983-1.434 3.193v5.662c-0.4327 0.159-0.8569 0.34-1.271 0.543-0.1314-0.163-0.2746-0.316-0.4284-0.457l-4.705-4.063c-0.9471-0.755-2.15-1.113-3.355-1.001-1.206 0.113-2.321 0.689-3.112 1.606-0.7907 0.917-1.195 2.105-1.129 3.314s0.5981 2.346 1.484 3.171l4.727 4.077c0.0374 0.033 0.078 0.061 0.1214 0.086-0.0857 0.2-0.1571 0.407-0.2356 0.614h-5.869c-1.234 5e-3 -2.416 0.499-3.288 1.372s-1.363 2.056-1.367 3.29c0 1.241 0.4925 2.431 1.369 3.31 0.8769 0.878 2.066 1.372 3.307 1.374h5.812l0.1428 0.386h-0.0429l-4.677 4.134c-0.8833 0.835-1.408 1.98-1.462 3.195-0.0541 1.214 0.366 2.402 1.172 3.312 0.8056 0.911 1.934 1.472 3.145 1.566 1.212 0.094 2.413-0.287 3.349-1.062l4.67-4.134 0.1-0.107c0.5106 0.275 1.04 0.514 1.585 0.714v5.612c0.0472 1.21 0.561 2.354 1.434 3.193 0.8725 0.839 2.036 1.308 3.247 1.308 1.211 0 2.374-0.469 3.247-1.308 0.8726-0.839 1.386-1.983 1.434-3.193v-5.555c0.3213-0.121 0.6426-0.25 0.9568-0.4l4.584 3.949c0.9439 0.807 2.17 1.207 3.409 1.11 1.239-0.096 2.388-0.68 3.196-1.624 0.8076-0.944 1.207-2.171 1.111-3.409-0.0965-1.239-0.6809-2.388-1.625-3.196l-4.07-3.513c0.1428-0.321 0.2713-0.65 0.3927-0.978h6.005c1.242 0 2.434-0.493 3.312-1.372 0.8784-0.878 1.372-2.07 1.372-3.312-0.0019-1.241-0.4962-2.43-1.374-3.307s-2.068-1.37-3.31-1.37z"/><path d="m58.21 373.1h-6.09c-0.1142-0.314-0.2428-0.621-0.3784-0.921l4.434-3.927c0.4695-0.404 0.854-0.897 1.131-1.451 0.2771-0.554 0.4415-1.158 0.4835-1.776 0.0419-0.618-0.0393-1.238-0.239-1.825-0.1998-0.586-0.514-1.127-0.9245-1.591s-0.9091-0.842-1.467-1.111c-0.5577-0.27-1.164-0.426-1.782-0.46-0.6186-0.033-1.238 0.056-1.821 0.264-0.5837 0.208-1.12 0.529-1.579 0.946l-4.67 4.134c-0.0714 0.064-0.1285 0.143-0.1999 0.214-0.2927-0.135-0.5926-0.257-0.8996-0.371v-5.662c-0.0473-1.21-0.561-2.354-1.434-3.193s-2.036-1.308-3.247-1.308-2.374 0.469-3.247 1.308c-0.8725 0.839-1.386 1.983-1.434 3.193v5.662c-0.4327 0.159-0.8569 0.34-1.271 0.543-0.1314-0.163-0.2746-0.316-0.4284-0.457l-4.705-4.063c-0.9471-0.755-2.15-1.113-3.355-1.001-1.206 0.113-2.321 0.689-3.112 1.606-0.7907 0.917-1.195 2.105-1.129 3.314s0.5981 2.346 1.484 3.171l4.727 4.077c0.0374 0.033 0.078 0.061 0.1214 0.086-0.0857 0.2-0.1571 0.407-0.2356 0.614h-5.869c-1.234 5e-3 -2.416 0.499-3.288 1.372s-1.363 2.056-1.367 3.29c0 1.241 0.4925 2.431 1.369 3.31 0.8769 0.878 2.066 1.372 3.307 1.374h5.812l0.1428 0.386h-0.0429l-4.677 4.134c-0.8833 0.835-1.408 1.98-1.462 3.195-0.0541 1.214 0.366 2.402 1.172 3.312 0.8056 0.911 1.934 1.472 3.145 1.566 1.212 0.094 2.413-0.287 3.349-1.062l4.67-4.134 0.1-0.107c0.5106 0.275 1.04 0.514 1.585 0.714v5.612c0.0472 1.21 0.561 2.354 1.434 3.193 0.8725 0.839 2.036 1.308 3.247 1.308 1.211 0 2.374-0.469 3.247-1.308 0.8726-0.839 1.386-1.983 1.434-3.193v-5.555c0.3213-0.121 0.6426-0.25 0.9568-0.4l4.584 3.949c0.9439 0.807 2.17 1.207 3.409 1.11 1.239-0.096 2.388-0.68 3.196-1.624 0.8076-0.944 1.207-2.171 1.111-3.409-0.0965-1.239-0.6809-2.388-1.625-3.196l-4.07-3.513c0.1428-0.321 0.2713-0.65 0.3927-0.978h6.005c1.242 0 2.434-0.493 3.312-1.372 0.8784-0.878 1.372-2.07 1.372-3.312-0.0019-1.241-0.4962-2.43-1.374-3.307s-2.068-1.37-3.31-1.37z"/><path d="m58.21 373.1h-6.09c-0.1142-0.314-0.2428-0.621-0.3784-0.921l4.434-3.927c0.4695-0.404 0.854-0.897 1.131-1.451 0.2771-0.554 0.4415-1.158 0.4835-1.776 0.0419-0.618-0.0393-1.238-0.239-1.825-0.1998-0.586-0.514-1.127-0.9245-1.591s-0.9091-0.842-1.467-1.111c-0.5577-0.27-1.164-0.426-1.782-0.46-0.6186-0.033-1.238 0.056-1.821 0.264-0.5837 0.208-1.12 0.529-1.579 0.946l-4.67 4.134c-0.0714 0.064-0.1285 0.143-0.1999 0.214-0.2927-0.135-0.5926-0.257-0.8996-0.371v-5.662c-0.0473-1.21-0.561-2.354-1.434-3.193s-2.036-1.308-3.247-1.308-2.374 0.469-3.247 1.308c-0.8725 0.839-1.386 1.983-1.434 3.193v5.662c-0.4327 0.159-0.8569 0.34-1.271 0.543-0.1314-0.163-0.2746-0.316-0.4284-0.457l-4.705-4.063c-0.9471-0.755-2.15-1.113-3.355-1.001-1.206 0.113-2.321 0.689-3.112 1.606-0.7907 0.917-1.195 2.105-1.129 3.314s0.5981 2.346 1.484 3.171l4.727 4.077c0.0374 0.033 0.078 0.061 0.1214 0.086-0.0857 0.2-0.1571 0.407-0.2356 0.614h-5.869c-1.234 5e-3 -2.416 0.499-3.288 1.372s-1.363 2.056-1.367 3.29c0 1.241 0.4925 2.431 1.369 3.31 0.8769 0.878 2.066 1.372 3.307 1.374h5.812l0.1428 0.386h-0.0429l-4.677 4.134c-0.8833 0.835-1.408 1.98-1.462 3.195-0.0541 1.214 0.366 2.402 1.172 3.312 0.8056 0.911 1.934 1.472 3.145 1.566 1.212 0.094 2.413-0.287 3.349-1.062l4.67-4.134 0.1-0.107c0.5106 0.275 1.04 0.514 1.585 0.714v5.612c0.0472 1.21 0.561 2.354 1.434 3.193 0.8725 0.839 2.036 1.308 3.247 1.308 1.211 0 2.374-0.469 3.247-1.308 0.8726-0.839 1.386-1.983 1.434-3.193v-5.555c0.3213-0.121 0.6426-0.25 0.9568-0.4l4.584 3.949c0.9439 0.807 2.17 1.207 3.409 1.11 1.239-0.096 2.388-0.68 3.196-1.624 0.8076-0.944 1.207-2.171 1.111-3.409-0.0965-1.239-0.6809-2.388-1.625-3.196l-4.07-3.513c0.1428-0.321 0.2713-0.65 0.3927-0.978h6.005c1.242 0 2.434-0.493 3.312-1.372 0.8784-0.878 1.372-2.07 1.372-3.312-0.0019-1.241-0.4962-2.43-1.374-3.307s-2.068-1.37-3.31-1.37z"/><path d="m58.21 373.1h-6.09c-0.1142-0.314-0.2428-0.621-0.3784-0.921l4.434-3.927c0.4695-0.404 0.854-0.897 1.131-1.451 0.2771-0.554 0.4415-1.158 0.4835-1.776 0.0419-0.618-0.0393-1.238-0.239-1.825-0.1998-0.586-0.514-1.127-0.9245-1.591s-0.9091-0.842-1.467-1.111c-0.5577-0.27-1.164-0.426-1.782-0.46-0.6186-0.033-1.238 0.056-1.821 0.264-0.5837 0.208-1.12 0.529-1.579 0.946l-4.67 4.134c-0.0714 0.064-0.1285 0.143-0.1999 0.214-0.2927-0.135-0.5926-0.257-0.8996-0.371v-5.662c-0.0473-1.21-0.561-2.354-1.434-3.193s-2.036-1.308-3.247-1.308-2.374 0.469-3.247 1.308c-0.8725 0.839-1.386 1.983-1.434 3.193v5.662c-0.4327 0.159-0.8569 0.34-1.271 0.543-0.1314-0.163-0.2746-0.316-0.4284-0.457l-4.705-4.063c-0.9471-0.755-2.15-1.113-3.355-1.001-1.206 0.113-2.321 0.689-3.112 1.606-0.7907 0.917-1.195 2.105-1.129 3.314s0.5981 2.346 1.484 3.171l4.727 4.077c0.0374 0.033 0.078 0.061 0.1214 0.086-0.0857 0.2-0.1571 0.407-0.2356 0.614h-5.869c-1.234 5e-3 -2.416 0.499-3.288 1.372s-1.363 2.056-1.367 3.29c0 1.241 0.4925 2.431 1.369 3.31 0.8769 0.878 2.066 1.372 3.307 1.374h5.812l0.1428 0.386h-0.0429l-4.677 4.134c-0.8833 0.835-1.408 1.98-1.462 3.195-0.0541 1.214 0.366 2.402 1.172 3.312 0.8056 0.911 1.934 1.472 3.145 1.566 1.212 0.094 2.413-0.287 3.349-1.062l4.67-4.134 0.1-0.107c0.5106 0.275 1.04 0.514 1.585 0.714v5.612c0.0472 1.21 0.561 2.354 1.434 3.193 0.8725 0.839 2.036 1.308 3.247 1.308 1.211 0 2.374-0.469 3.247-1.308 0.8726-0.839 1.386-1.983 1.434-3.193v-5.555c0.3213-0.121 0.6426-0.25 0.9568-0.4l4.584 3.949c0.9439 0.807 2.17 1.207 3.409 1.11 1.239-0.096 2.388-0.68 3.196-1.624 0.8076-0.944 1.207-2.171 1.111-3.409-0.0965-1.239-0.6809-2.388-1.625-3.196l-4.07-3.513c0.1428-0.321 0.2713-0.65 0.3927-0.978h6.005c1.242 0 2.434-0.493 3.312-1.372 0.8784-0.878 1.372-2.07 1.372-3.312-0.0019-1.241-0.4962-2.43-1.374-3.307s-2.068-1.37-3.31-1.37z"/><path d="m58.21 373.1h-6.09c-0.1142-0.314-0.2428-0.621-0.3784-0.921l4.434-3.927c0.4695-0.404 0.854-0.897 1.131-1.451 0.2771-0.554 0.4415-1.158 0.4835-1.776 0.0419-0.618-0.0393-1.238-0.239-1.825-0.1998-0.586-0.514-1.127-0.9245-1.591s-0.9091-0.842-1.467-1.111c-0.5577-0.27-1.164-0.426-1.782-0.46-0.6186-0.033-1.238 0.056-1.821 0.264-0.5837 0.208-1.12 0.529-1.579 0.946l-4.67 4.134c-0.0714 0.064-0.1285 0.143-0.1999 0.214-0.2927-0.135-0.5926-0.257-0.8996-0.371v-5.662c-0.0473-1.21-0.561-2.354-1.434-3.193s-2.036-1.308-3.247-1.308-2.374 0.469-3.247 1.308c-0.8725 0.839-1.386 1.983-1.434 3.193v5.662c-0.4327 0.159-0.8569 0.34-1.271 0.543-0.1314-0.163-0.2746-0.316-0.4284-0.457l-4.705-4.063c-0.9471-0.755-2.15-1.113-3.355-1.001-1.206 0.113-2.321 0.689-3.112 1.606-0.7907 0.917-1.195 2.105-1.129 3.314s0.5981 2.346 1.484 3.171l4.727 4.077c0.0374 0.033 0.078 0.061 0.1214 0.086-0.0857 0.2-0.1571 0.407-0.2356 0.614h-5.869c-1.234 5e-3 -2.416 0.499-3.288 1.372s-1.363 2.056-1.367 3.29c0 1.241 0.4925 2.431 1.369 3.31 0.8769 0.878 2.066 1.372 3.307 1.374h5.812l0.1428 0.386h-0.0429l-4.677 4.134c-0.8833 0.835-1.408 1.98-1.462 3.195-0.0541 1.214 0.366 2.402 1.172 3.312 0.8056 0.911 1.934 1.472 3.145 1.566 1.212 0.094 2.413-0.287 3.349-1.062l4.67-4.134 0.1-0.107c0.5106 0.275 1.04 0.514 1.585 0.714v5.612c0.0472 1.21 0.561 2.354 1.434 3.193 0.8725 0.839 2.036 1.308 3.247 1.308 1.211 0 2.374-0.469 3.247-1.308 0.8726-0.839 1.386-1.983 1.434-3.193v-5.555c0.3213-0.121 0.6426-0.25 0.9568-0.4l4.584 3.949c0.9439 0.807 2.17 1.207 3.409 1.11 1.239-0.096 2.388-0.68 3.196-1.624 0.8076-0.944 1.207-2.171 1.111-3.409-0.0965-1.239-0.6809-2.388-1.625-3.196l-4.07-3.513c0.1428-0.321 0.2713-0.65 0.3927-0.978h6.005c1.242 0 2.434-0.493 3.312-1.372 0.8784-0.878 1.372-2.07 1.372-3.312-0.0019-1.241-0.4962-2.43-1.374-3.307s-2.068-1.37-3.31-1.37z"/><path d="m58.21 373.1h-6.09c-0.1142-0.314-0.2428-0.621-0.3784-0.921l4.434-3.927c0.4695-0.404 0.854-0.897 1.131-1.451 0.2771-0.554 0.4415-1.158 0.4835-1.776 0.0419-0.618-0.0393-1.238-0.239-1.825-0.1998-0.586-0.514-1.127-0.9245-1.591s-0.9091-0.842-1.467-1.111c-0.5577-0.27-1.164-0.426-1.782-0.46-0.6186-0.033-1.238 0.056-1.821 0.264-0.5837 0.208-1.12 0.529-1.579 0.946l-4.67 4.134c-0.0714 0.064-0.1285 0.143-0.1999 0.214-0.2927-0.135-0.5926-0.257-0.8996-0.371v-5.662c-0.0473-1.21-0.561-2.354-1.434-3.193s-2.036-1.308-3.247-1.308-2.374 0.469-3.247 1.308c-0.8725 0.839-1.386 1.983-1.434 3.193v5.662c-0.4327 0.159-0.8569 0.34-1.271 0.543-0.1314-0.163-0.2746-0.316-0.4284-0.457l-4.705-4.063c-0.9471-0.755-2.15-1.113-3.355-1.001-1.206 0.113-2.321 0.689-3.112 1.606-0.7907 0.917-1.195 2.105-1.129 3.314s0.5981 2.346 1.484 3.171l4.727 4.077c0.0374 0.033 0.078 0.061 0.1214 0.086-0.0857 0.2-0.1571 0.407-0.2356 0.614h-5.869c-1.234 5e-3 -2.416 0.499-3.288 1.372s-1.363 2.056-1.367 3.29c0 1.241 0.4925 2.431 1.369 3.31 0.8769 0.878 2.066 1.372 3.307 1.374h5.812l0.1428 0.386h-0.0429l-4.677 4.134c-0.8833 0.835-1.408 1.98-1.462 3.195-0.0541 1.214 0.366 2.402 1.172 3.312 0.8056 0.911 1.934 1.472 3.145 1.566 1.212 0.094 2.413-0.287 3.349-1.062l4.67-4.134 0.1-0.107c0.5106 0.275 1.04 0.514 1.585 0.714v5.612c0.0472 1.21 0.561 2.354 1.434 3.193 0.8725 0.839 2.036 1.308 3.247 1.308 1.211 0 2.374-0.469 3.247-1.308 0.8726-0.839 1.386-1.983 1.434-3.193v-5.555c0.3213-0.121 0.6426-0.25 0.9568-0.4l4.584 3.949c0.9439 0.807 2.17 1.207 3.409 1.11 1.239-0.096 2.388-0.68 3.196-1.624 0.8076-0.944 1.207-2.171 1.111-3.409-0.0965-1.239-0.6809-2.388-1.625-3.196l-4.07-3.513c0.1428-0.321 0.2713-0.65 0.3927-0.978h6.005c1.242 0 2.434-0.493 3.312-1.372 0.8784-0.878 1.372-2.07 1.372-3.312-0.0019-1.241-0.4962-2.43-1.374-3.307s-2.068-1.37-3.31-1.37z"/><path d="m108 390.4h-6.062c-0.114-0.314-0.243-0.614-0.386-0.913l4.441-3.927c0.884-0.836 1.408-1.981 1.462-3.196 0.054-1.214-0.366-2.402-1.172-3.312-0.805-0.911-1.933-1.472-3.145-1.566s-2.413 0.287-3.349 1.062l-4.67 4.134c-0.0703 0.068-0.137 0.14-0.1999 0.214-0.2928-0.135-0.5998-0.257-0.9068-0.371v-5.662c-0.0473-1.21-0.5611-2.354-1.434-3.193-0.8726-0.839-2.036-1.308-3.247-1.308s-2.374 0.469-3.247 1.308c-0.8725 0.839-1.386 1.983-1.434 3.193v5.662c-0.4284 0.157-0.8496 0.343-1.264 0.543-0.1335-0.161-0.2765-0.314-0.4284-0.457l-4.727-4.077c-0.4612-0.43-1.004-0.762-1.597-0.977-0.5926-0.214-1.222-0.307-1.852-0.273-0.6293 0.034-1.245 0.196-1.811 0.474s-1.069 0.667-1.481 1.145c-0.4115 0.477-0.7225 1.033-0.9142 1.633s-0.2603 1.233-0.2016 1.861 0.2434 1.237 0.5431 1.791c0.2998 0.555 0.7083 1.043 1.201 1.436l4.72 4.077c0.0411 0.031 0.084 0.059 0.1285 0.085-0.0857 0.2-0.1642 0.407-0.2356 0.614h-5.869c-1.24 0-2.43 0.493-3.307 1.37-0.8771 0.877-1.37 2.067-1.37 3.307 0 1.241 0.4925 2.431 1.369 3.31 0.8769 0.878 2.066 1.372 3.307 1.374h5.812c0.0428 0.129 0.0928 0.264 0.1428 0.393h-0.0429l-4.677 4.134c-0.4837 0.4-0.882 0.894-1.171 1.452-0.2891 0.557-0.4631 1.167-0.5116 1.793-0.0486 0.626 0.0293 1.256 0.2289 1.851 0.1997 0.596 0.517 1.145 0.9332 1.616 0.4162 0.47 0.9228 0.852 1.49 1.122 0.5667 0.271 1.182 0.425 1.81 0.453 0.6275 0.028 1.254-0.071 1.843-0.29s1.127-0.554 1.584-0.986l4.67-4.134 0.1-0.1c0.5102 0.272 1.037 0.51 1.578 0.714v5.648c0.0473 1.21 0.5611 2.354 1.434 3.193 0.8726 0.839 2.036 1.308 3.247 1.308s2.374-0.469 3.247-1.308c0.8725-0.839 1.386-1.983 1.434-3.193v-5.641c0.3284-0.121 0.6497-0.25 0.9639-0.4l4.577 3.949c0.465 0.402 1.005 0.708 1.588 0.901 0.584 0.193 1.199 0.27 1.812 0.225s1.211-0.21 1.761-0.486c0.549-0.276 1.038-0.657 1.44-1.122s0.708-1.005 0.901-1.588c0.193-0.584 0.27-1.199 0.225-1.812s-0.21-1.211-0.486-1.761c-0.276-0.549-0.657-1.038-1.122-1.44l-4.077-3.513c0.15-0.321 0.279-0.65 0.4-0.978h6.005c1.241-2e-3 2.43-0.496 3.307-1.374 0.877-0.879 1.369-2.069 1.369-3.31 0-0.614-0.121-1.222-0.356-1.79-0.235-0.567-0.579-1.082-1.013-1.517-0.435-0.434-0.95-0.779-1.518-1.014-0.567-0.235-1.175-0.356-1.789-0.356z"/><path d="m108 390.4h-6.062c-0.114-0.314-0.243-0.614-0.386-0.913l4.441-3.927c0.884-0.836 1.408-1.981 1.462-3.196 0.054-1.214-0.366-2.402-1.172-3.312-0.805-0.911-1.933-1.472-3.145-1.566s-2.413 0.287-3.349 1.062l-4.67 4.134c-0.0703 0.068-0.137 0.14-0.1999 0.214-0.2928-0.135-0.5998-0.257-0.9068-0.371v-5.662c-0.0473-1.21-0.5611-2.354-1.434-3.193-0.8726-0.839-2.036-1.308-3.247-1.308s-2.374 0.469-3.247 1.308c-0.8725 0.839-1.386 1.983-1.434 3.193v5.662c-0.4284 0.157-0.8496 0.343-1.264 0.543-0.1335-0.161-0.2765-0.314-0.4284-0.457l-4.727-4.077c-0.4612-0.43-1.004-0.762-1.597-0.977-0.5926-0.214-1.222-0.307-1.852-0.273-0.6293 0.034-1.245 0.196-1.811 0.474s-1.069 0.667-1.481 1.145c-0.4115 0.477-0.7225 1.033-0.9142 1.633s-0.2603 1.233-0.2016 1.861 0.2434 1.237 0.5431 1.791c0.2998 0.555 0.7083 1.043 1.201 1.436l4.72 4.077c0.0411 0.031 0.084 0.059 0.1285 0.085-0.0857 0.2-0.1642 0.407-0.2356 0.614h-5.869c-1.24 0-2.43 0.493-3.307 1.37-0.8771 0.877-1.37 2.067-1.37 3.307 0 1.241 0.4925 2.431 1.369 3.31 0.8769 0.878 2.066 1.372 3.307 1.374h5.812c0.0428 0.129 0.0928 0.264 0.1428 0.393h-0.0429l-4.677 4.134c-0.4837 0.4-0.882 0.894-1.171 1.452-0.2891 0.557-0.4631 1.167-0.5116 1.793-0.0486 0.626 0.0293 1.256 0.2289 1.851 0.1997 0.596 0.517 1.145 0.9332 1.616 0.4162 0.47 0.9228 0.852 1.49 1.122 0.5667 0.271 1.182 0.425 1.81 0.453 0.6275 0.028 1.254-0.071 1.843-0.29s1.127-0.554 1.584-0.986l4.67-4.134 0.1-0.1c0.5102 0.272 1.037 0.51 1.578 0.714v5.648c0.0473 1.21 0.5611 2.354 1.434 3.193 0.8726 0.839 2.036 1.308 3.247 1.308s2.374-0.469 3.247-1.308c0.8725-0.839 1.386-1.983 1.434-3.193v-5.641c0.3284-0.121 0.6497-0.25 0.9639-0.4l4.577 3.949c0.465 0.402 1.005 0.708 1.588 0.901 0.584 0.193 1.199 0.27 1.812 0.225s1.211-0.21 1.761-0.486c0.549-0.276 1.038-0.657 1.44-1.122s0.708-1.005 0.901-1.588c0.193-0.584 0.27-1.199 0.225-1.812s-0.21-1.211-0.486-1.761c-0.276-0.549-0.657-1.038-1.122-1.44l-4.077-3.513c0.15-0.321 0.279-0.65 0.4-0.978h6.005c1.241-2e-3 2.43-0.496 3.307-1.374 0.877-0.879 1.369-2.069 1.369-3.31 0-0.614-0.121-1.222-0.356-1.79-0.235-0.567-0.579-1.082-1.013-1.517-0.435-0.434-0.95-0.779-1.518-1.014-0.567-0.235-1.175-0.356-1.789-0.356z"/><path d="m108 390.4h-6.062c-0.114-0.314-0.243-0.614-0.386-0.913l4.441-3.927c0.884-0.836 1.408-1.981 1.462-3.196 0.054-1.214-0.366-2.402-1.172-3.312-0.805-0.911-1.933-1.472-3.145-1.566s-2.413 0.287-3.349 1.062l-4.67 4.134c-0.0703 0.068-0.137 0.14-0.1999 0.214-0.2928-0.135-0.5998-0.257-0.9068-0.371v-5.662c-0.0473-1.21-0.5611-2.354-1.434-3.193-0.8726-0.839-2.036-1.308-3.247-1.308s-2.374 0.469-3.247 1.308c-0.8725 0.839-1.386 1.983-1.434 3.193v5.662c-0.4284 0.157-0.8496 0.343-1.264 0.543-0.1335-0.161-0.2765-0.314-0.4284-0.457l-4.727-4.077c-0.4612-0.43-1.004-0.762-1.597-0.977-0.5926-0.214-1.222-0.307-1.852-0.273-0.6293 0.034-1.245 0.196-1.811 0.474s-1.069 0.667-1.481 1.145c-0.4115 0.477-0.7225 1.033-0.9142 1.633s-0.2603 1.233-0.2016 1.861 0.2434 1.237 0.5431 1.791c0.2998 0.555 0.7083 1.043 1.201 1.436l4.72 4.077c0.0411 0.031 0.084 0.059 0.1285 0.085-0.0857 0.2-0.1642 0.407-0.2356 0.614h-5.869c-1.24 0-2.43 0.493-3.307 1.37-0.8771 0.877-1.37 2.067-1.37 3.307 0 1.241 0.4925 2.431 1.369 3.31 0.8769 0.878 2.066 1.372 3.307 1.374h5.812c0.0428 0.129 0.0928 0.264 0.1428 0.393h-0.0429l-4.677 4.134c-0.4837 0.4-0.882 0.894-1.171 1.452-0.2891 0.557-0.4631 1.167-0.5116 1.793-0.0486 0.626 0.0293 1.256 0.2289 1.851 0.1997 0.596 0.517 1.145 0.9332 1.616 0.4162 0.47 0.9228 0.852 1.49 1.122 0.5667 0.271 1.182 0.425 1.81 0.453 0.6275 0.028 1.254-0.071 1.843-0.29s1.127-0.554 1.584-0.986l4.67-4.134 0.1-0.1c0.5102 0.272 1.037 0.51 1.578 0.714v5.648c0.0473 1.21 0.5611 2.354 1.434 3.193 0.8726 0.839 2.036 1.308 3.247 1.308s2.374-0.469 3.247-1.308c0.8725-0.839 1.386-1.983 1.434-3.193v-5.641c0.3284-0.121 0.6497-0.25 0.9639-0.4l4.577 3.949c0.465 0.402 1.005 0.708 1.588 0.901 0.584 0.193 1.199 0.27 1.812 0.225s1.211-0.21 1.761-0.486c0.549-0.276 1.038-0.657 1.44-1.122s0.708-1.005 0.901-1.588c0.193-0.584 0.27-1.199 0.225-1.812s-0.21-1.211-0.486-1.761c-0.276-0.549-0.657-1.038-1.122-1.44l-4.077-3.513c0.15-0.321 0.279-0.65 0.4-0.978h6.005c1.241-2e-3 2.43-0.496 3.307-1.374 0.877-0.879 1.369-2.069 1.369-3.31 0-0.614-0.121-1.222-0.356-1.79-0.235-0.567-0.579-1.082-1.013-1.517-0.435-0.434-0.95-0.779-1.518-1.014-0.567-0.235-1.175-0.356-1.789-0.356z"/><path d="m108 390.4h-6.062c-0.114-0.314-0.243-0.614-0.386-0.913l4.441-3.927c0.884-0.836 1.408-1.981 1.462-3.196 0.054-1.214-0.366-2.402-1.172-3.312-0.805-0.911-1.933-1.472-3.145-1.566s-2.413 0.287-3.349 1.062l-4.67 4.134c-0.0703 0.068-0.137 0.14-0.1999 0.214-0.2928-0.135-0.5998-0.257-0.9068-0.371v-5.662c-0.0473-1.21-0.5611-2.354-1.434-3.193-0.8726-0.839-2.036-1.308-3.247-1.308s-2.374 0.469-3.247 1.308c-0.8725 0.839-1.386 1.983-1.434 3.193v5.662c-0.4284 0.157-0.8496 0.343-1.264 0.543-0.1335-0.161-0.2765-0.314-0.4284-0.457l-4.727-4.077c-0.4612-0.43-1.004-0.762-1.597-0.977-0.5926-0.214-1.222-0.307-1.852-0.273-0.6293 0.034-1.245 0.196-1.811 0.474s-1.069 0.667-1.481 1.145c-0.4115 0.477-0.7225 1.033-0.9142 1.633s-0.2603 1.233-0.2016 1.861 0.2434 1.237 0.5431 1.791c0.2998 0.555 0.7083 1.043 1.201 1.436l4.72 4.077c0.0411 0.031 0.084 0.059 0.1285 0.085-0.0857 0.2-0.1642 0.407-0.2356 0.614h-5.869c-1.24 0-2.43 0.493-3.307 1.37-0.8771 0.877-1.37 2.067-1.37 3.307 0 1.241 0.4925 2.431 1.369 3.31 0.8769 0.878 2.066 1.372 3.307 1.374h5.812c0.0428 0.129 0.0928 0.264 0.1428 0.393h-0.0429l-4.677 4.134c-0.4837 0.4-0.882 0.894-1.171 1.452-0.2891 0.557-0.4631 1.167-0.5116 1.793-0.0486 0.626 0.0293 1.256 0.2289 1.851 0.1997 0.596 0.517 1.145 0.9332 1.616 0.4162 0.47 0.9228 0.852 1.49 1.122 0.5667 0.271 1.182 0.425 1.81 0.453 0.6275 0.028 1.254-0.071 1.843-0.29s1.127-0.554 1.584-0.986l4.67-4.134 0.1-0.1c0.5102 0.272 1.037 0.51 1.578 0.714v5.648c0.0473 1.21 0.5611 2.354 1.434 3.193 0.8726 0.839 2.036 1.308 3.247 1.308s2.374-0.469 3.247-1.308c0.8725-0.839 1.386-1.983 1.434-3.193v-5.641c0.3284-0.121 0.6497-0.25 0.9639-0.4l4.577 3.949c0.465 0.402 1.005 0.708 1.588 0.901 0.584 0.193 1.199 0.27 1.812 0.225s1.211-0.21 1.761-0.486c0.549-0.276 1.038-0.657 1.44-1.122s0.708-1.005 0.901-1.588c0.193-0.584 0.27-1.199 0.225-1.812s-0.21-1.211-0.486-1.761c-0.276-0.549-0.657-1.038-1.122-1.44l-4.077-3.513c0.15-0.321 0.279-0.65 0.4-0.978h6.005c1.241-2e-3 2.43-0.496 3.307-1.374 0.877-0.879 1.369-2.069 1.369-3.31 0-0.614-0.121-1.222-0.356-1.79-0.235-0.567-0.579-1.082-1.013-1.517-0.435-0.434-0.95-0.779-1.518-1.014-0.567-0.235-1.175-0.356-1.789-0.356z"/><path d="m108 390.4h-6.062c-0.114-0.314-0.243-0.614-0.386-0.913l4.441-3.927c0.884-0.836 1.408-1.981 1.462-3.196 0.054-1.214-0.366-2.402-1.172-3.312-0.805-0.911-1.933-1.472-3.145-1.566s-2.413 0.287-3.349 1.062l-4.67 4.134c-0.0703 0.068-0.137 0.14-0.1999 0.214-0.2928-0.135-0.5998-0.257-0.9068-0.371v-5.662c-0.0473-1.21-0.5611-2.354-1.434-3.193-0.8726-0.839-2.036-1.308-3.247-1.308s-2.374 0.469-3.247 1.308c-0.8725 0.839-1.386 1.983-1.434 3.193v5.662c-0.4284 0.157-0.8496 0.343-1.264 0.543-0.1335-0.161-0.2765-0.314-0.4284-0.457l-4.727-4.077c-0.4612-0.43-1.004-0.762-1.597-0.977-0.5926-0.214-1.222-0.307-1.852-0.273-0.6293 0.034-1.245 0.196-1.811 0.474s-1.069 0.667-1.481 1.145c-0.4115 0.477-0.7225 1.033-0.9142 1.633s-0.2603 1.233-0.2016 1.861 0.2434 1.237 0.5431 1.791c0.2998 0.555 0.7083 1.043 1.201 1.436l4.72 4.077c0.0411 0.031 0.084 0.059 0.1285 0.085-0.0857 0.2-0.1642 0.407-0.2356 0.614h-5.869c-1.24 0-2.43 0.493-3.307 1.37-0.8771 0.877-1.37 2.067-1.37 3.307 0 1.241 0.4925 2.431 1.369 3.31 0.8769 0.878 2.066 1.372 3.307 1.374h5.812c0.0428 0.129 0.0928 0.264 0.1428 0.393h-0.0429l-4.677 4.134c-0.4837 0.4-0.882 0.894-1.171 1.452-0.2891 0.557-0.4631 1.167-0.5116 1.793-0.0486 0.626 0.0293 1.256 0.2289 1.851 0.1997 0.596 0.517 1.145 0.9332 1.616 0.4162 0.47 0.9228 0.852 1.49 1.122 0.5667 0.271 1.182 0.425 1.81 0.453 0.6275 0.028 1.254-0.071 1.843-0.29s1.127-0.554 1.584-0.986l4.67-4.134 0.1-0.1c0.5102 0.272 1.037 0.51 1.578 0.714v5.648c0.0473 1.21 0.5611 2.354 1.434 3.193 0.8726 0.839 2.036 1.308 3.247 1.308s2.374-0.469 3.247-1.308c0.8725-0.839 1.386-1.983 1.434-3.193v-5.641c0.3284-0.121 0.6497-0.25 0.9639-0.4l4.577 3.949c0.465 0.402 1.005 0.708 1.588 0.901 0.584 0.193 1.199 0.27 1.812 0.225s1.211-0.21 1.761-0.486c0.549-0.276 1.038-0.657 1.44-1.122s0.708-1.005 0.901-1.588c0.193-0.584 0.27-1.199 0.225-1.812s-0.21-1.211-0.486-1.761c-0.276-0.549-0.657-1.038-1.122-1.44l-4.077-3.513c0.15-0.321 0.279-0.65 0.4-0.978h6.005c1.241-2e-3 2.43-0.496 3.307-1.374 0.877-0.879 1.369-2.069 1.369-3.31 0-0.614-0.121-1.222-0.356-1.79-0.235-0.567-0.579-1.082-1.013-1.517-0.435-0.434-0.95-0.779-1.518-1.014-0.567-0.235-1.175-0.356-1.789-0.356z"/><path d="m108 390.4h-6.062c-0.114-0.314-0.243-0.614-0.386-0.913l4.441-3.927c0.884-0.836 1.408-1.981 1.462-3.196 0.054-1.214-0.366-2.402-1.172-3.312-0.805-0.911-1.933-1.472-3.145-1.566s-2.413 0.287-3.349 1.062l-4.67 4.134c-0.0703 0.068-0.137 0.14-0.1999 0.214-0.2928-0.135-0.5998-0.257-0.9068-0.371v-5.662c-0.0473-1.21-0.5611-2.354-1.434-3.193-0.8726-0.839-2.036-1.308-3.247-1.308s-2.374 0.469-3.247 1.308c-0.8725 0.839-1.386 1.983-1.434 3.193v5.662c-0.4284 0.157-0.8496 0.343-1.264 0.543-0.1335-0.161-0.2765-0.314-0.4284-0.457l-4.727-4.077c-0.4612-0.43-1.004-0.762-1.597-0.977-0.5926-0.214-1.222-0.307-1.852-0.273-0.6293 0.034-1.245 0.196-1.811 0.474s-1.069 0.667-1.481 1.145c-0.4115 0.477-0.7225 1.033-0.9142 1.633s-0.2603 1.233-0.2016 1.861 0.2434 1.237 0.5431 1.791c0.2998 0.555 0.7083 1.043 1.201 1.436l4.72 4.077c0.0411 0.031 0.084 0.059 0.1285 0.085-0.0857 0.2-0.1642 0.407-0.2356 0.614h-5.869c-1.24 0-2.43 0.493-3.307 1.37-0.8771 0.877-1.37 2.067-1.37 3.307 0 1.241 0.4925 2.431 1.369 3.31 0.8769 0.878 2.066 1.372 3.307 1.374h5.812c0.0428 0.129 0.0928 0.264 0.1428 0.393h-0.0429l-4.677 4.134c-0.4837 0.4-0.882 0.894-1.171 1.452-0.2891 0.557-0.4631 1.167-0.5116 1.793-0.0486 0.626 0.0293 1.256 0.2289 1.851 0.1997 0.596 0.517 1.145 0.9332 1.616 0.4162 0.47 0.9228 0.852 1.49 1.122 0.5667 0.271 1.182 0.425 1.81 0.453 0.6275 0.028 1.254-0.071 1.843-0.29s1.127-0.554 1.584-0.986l4.67-4.134 0.1-0.1c0.5102 0.272 1.037 0.51 1.578 0.714v5.648c0.0473 1.21 0.5611 2.354 1.434 3.193 0.8726 0.839 2.036 1.308 3.247 1.308s2.374-0.469 3.247-1.308c0.8725-0.839 1.386-1.983 1.434-3.193v-5.641c0.3284-0.121 0.6497-0.25 0.9639-0.4l4.577 3.949c0.465 0.402 1.005 0.708 1.588 0.901 0.584 0.193 1.199 0.27 1.812 0.225s1.211-0.21 1.761-0.486c0.549-0.276 1.038-0.657 1.44-1.122s0.708-1.005 0.901-1.588c0.193-0.584 0.27-1.199 0.225-1.812s-0.21-1.211-0.486-1.761c-0.276-0.549-0.657-1.038-1.122-1.44l-4.077-3.513c0.15-0.321 0.279-0.65 0.4-0.978h6.005c1.241-2e-3 2.43-0.496 3.307-1.374 0.877-0.879 1.369-2.069 1.369-3.31 0-0.614-0.121-1.222-0.356-1.79-0.235-0.567-0.579-1.082-1.013-1.517-0.435-0.434-0.95-0.779-1.518-1.014-0.567-0.235-1.175-0.356-1.789-0.356z"/><path d="m108 390.4h-6.062c-0.114-0.314-0.243-0.614-0.386-0.913l4.441-3.927c0.884-0.836 1.408-1.981 1.462-3.196 0.054-1.214-0.366-2.402-1.172-3.312-0.805-0.911-1.933-1.472-3.145-1.566s-2.413 0.287-3.349 1.062l-4.67 4.134c-0.0703 0.068-0.137 0.14-0.1999 0.214-0.2928-0.135-0.5998-0.257-0.9068-0.371v-5.662c-0.0473-1.21-0.5611-2.354-1.434-3.193-0.8726-0.839-2.036-1.308-3.247-1.308s-2.374 0.469-3.247 1.308c-0.8725 0.839-1.386 1.983-1.434 3.193v5.662c-0.4284 0.157-0.8496 0.343-1.264 0.543-0.1335-0.161-0.2765-0.314-0.4284-0.457l-4.727-4.077c-0.4612-0.43-1.004-0.762-1.597-0.977-0.5926-0.214-1.222-0.307-1.852-0.273-0.6293 0.034-1.245 0.196-1.811 0.474s-1.069 0.667-1.481 1.145c-0.4115 0.477-0.7225 1.033-0.9142 1.633s-0.2603 1.233-0.2016 1.861 0.2434 1.237 0.5431 1.791c0.2998 0.555 0.7083 1.043 1.201 1.436l4.72 4.077c0.0411 0.031 0.084 0.059 0.1285 0.085-0.0857 0.2-0.1642 0.407-0.2356 0.614h-5.869c-1.24 0-2.43 0.493-3.307 1.37-0.8771 0.877-1.37 2.067-1.37 3.307 0 1.241 0.4925 2.431 1.369 3.31 0.8769 0.878 2.066 1.372 3.307 1.374h5.812c0.0428 0.129 0.0928 0.264 0.1428 0.393h-0.0429l-4.677 4.134c-0.4837 0.4-0.882 0.894-1.171 1.452-0.2891 0.557-0.4631 1.167-0.5116 1.793-0.0486 0.626 0.0293 1.256 0.2289 1.851 0.1997 0.596 0.517 1.145 0.9332 1.616 0.4162 0.47 0.9228 0.852 1.49 1.122 0.5667 0.271 1.182 0.425 1.81 0.453 0.6275 0.028 1.254-0.071 1.843-0.29s1.127-0.554 1.584-0.986l4.67-4.134 0.1-0.1c0.5102 0.272 1.037 0.51 1.578 0.714v5.648c0.0473 1.21 0.5611 2.354 1.434 3.193 0.8726 0.839 2.036 1.308 3.247 1.308s2.374-0.469 3.247-1.308c0.8725-0.839 1.386-1.983 1.434-3.193v-5.641c0.3284-0.121 0.6497-0.25 0.9639-0.4l4.577 3.949c0.465 0.402 1.005 0.708 1.588 0.901 0.584 0.193 1.199 0.27 1.812 0.225s1.211-0.21 1.761-0.486c0.549-0.276 1.038-0.657 1.44-1.122s0.708-1.005 0.901-1.588c0.193-0.584 0.27-1.199 0.225-1.812s-0.21-1.211-0.486-1.761c-0.276-0.549-0.657-1.038-1.122-1.44l-4.077-3.513c0.15-0.321 0.279-0.65 0.4-0.978h6.005c1.241-2e-3 2.43-0.496 3.307-1.374 0.877-0.879 1.369-2.069 1.369-3.31 0-0.614-0.121-1.222-0.356-1.79-0.235-0.567-0.579-1.082-1.013-1.517-0.435-0.434-0.95-0.779-1.518-1.014-0.567-0.235-1.175-0.356-1.789-0.356z"/></g><path d="m39.65 384c3.423 0 6.198-2.775 6.198-6.198s-2.775-6.197-6.198-6.197c-3.423 0-6.198 2.774-6.198 6.197s2.775 6.198 6.198 6.198z" fill="#fff"/><path d="m89.49 401.6c3.423 0 6.198-2.774 6.198-6.197s-2.775-6.198-6.198-6.198-6.198 2.775-6.198 6.198 2.775 6.197 6.198 6.197z" fill="#fff"/><path d="m97.63 507.5c-2.322 0-4.591-0.688-6.521-1.978s-3.435-3.123-4.323-5.268-1.121-4.505-0.668-6.782c0.453-2.277 1.571-4.368 3.212-6.01 1.642-1.641 3.733-2.759 6.01-3.212 2.277-0.453 4.637-0.221 6.782 0.668 2.145 0.888 3.978 2.393 5.268 4.323s1.978 4.2 1.978 6.521c-3e-3 3.112-1.241 6.096-3.442 8.296-2.2 2.201-5.184 3.439-8.296 3.442zm0-20.62c-1.757 0-3.474 0.521-4.935 1.497s-2.599 2.363-3.271 3.986-0.8482 3.409-0.5054 5.132c0.3427 1.723 1.189 3.306 2.431 4.548s2.825 2.088 4.548 2.431c1.723 0.342 3.509 0.167 5.132-0.506 1.623-0.672 3.011-1.81 3.986-3.271 0.976-1.461 1.497-3.178 1.497-4.935-5e-3 -2.354-0.943-4.61-2.607-6.274-1.665-1.665-3.921-2.602-6.275-2.608z" fill="#262626"/><path d="m79.13 527c-1.608 0-3.181-0.477-4.518-1.37-1.337-0.894-2.38-2.164-2.995-3.65-0.6156-1.486-0.7766-3.121-0.4628-4.699 0.3138-1.577 1.088-3.026 2.226-4.164 1.137-1.137 2.586-1.911 4.164-2.225 1.578-0.314 3.213-0.153 4.699 0.463 1.486 0.615 2.756 1.657 3.65 2.995 0.8936 1.337 1.37 2.909 1.37 4.518-0.0018 2.156-0.8593 4.224-2.384 5.748-1.525 1.525-3.592 2.382-5.748 2.384zm0-13.41c-1.044 0-2.064 0.31-2.932 0.89-0.8677 0.579-1.544 1.404-1.943 2.368-0.3994 0.964-0.5039 2.025-0.3003 3.048 0.2036 1.024 0.7061 1.964 1.444 2.702 0.7379 0.738 1.678 1.24 2.702 1.444s2.084 0.099 3.049-0.3c0.9641-0.4 1.788-1.076 2.368-1.944 0.5798-0.867 0.8892-1.887 0.8892-2.931-0.0018-1.399-0.5584-2.74-1.548-3.729s-2.33-1.546-3.729-1.548z" fill="#262626"/></svg>
